<?xml version="1.0" encoding="UTF-8" standalone="no"?>
<!-- Created with Inkscape (http://www.inkscape.org/) -->

<svg
   xmlns:dc="http://purl.org/dc/elements/1.1/"
   xmlns:cc="http://creativecommons.org/ns#"
   xmlns:rdf="http://www.w3.org/1999/02/22-rdf-syntax-ns#"
   xmlns:svg="http://www.w3.org/2000/svg"
   xmlns="http://www.w3.org/2000/svg"
   xmlns:sodipodi="http://sodipodi.sourceforge.net/DTD/sodipodi-0.dtd"
   xmlns:inkscape="http://www.inkscape.org/namespaces/inkscape"
   width="1200"
   height="700"
   viewBox="0 0 317.49999 185.20834"
   version="1.1"
   id="svg6116"
   inkscape:version="0.92.1 r15371"
   sodipodi:docname="background.svg"
   inkscape:export-filename="/home/snma/docs/programming/2018/03_plains_nostalgy/img/background.png"
   inkscape:export-xdpi="200.952"
   inkscape:export-ydpi="200.952">
  <defs
     id="defs6110">
    <inkscape:path-effect
       effect="skeletal"
       id="path-effect7112"
       is_visible="true"
       pattern="m -4.8108515,-30.279578 c 0,-2.76 2.24,-5 5.00000001,-5 2.75999999,0 4.99999999,2.24 4.99999999,5 0,2.76 -2.24,5 -4.99999999,5 -2.76000001,0 -5.00000001,-2.24 -5.00000001,-5 z"
       copytype="single_stretched"
       prop_scale="0.26458333"
       scale_y_rel="false"
       spacing="0"
       normal_offset="0"
       tang_offset="0"
       prop_units="false"
       vertical_pattern="false"
       fuse_tolerance="0" />
    <inkscape:path-effect
       effect="simplify"
       id="path-effect7110"
       is_visible="true"
       steps="1"
       threshold="0.0181935"
       smooth_angles="360"
       helper_size="0"
       simplify_individual_paths="false"
       simplify_just_coalesce="false"
       simplifyindividualpaths="false"
       simplifyJustCoalesce="false" />
    <inkscape:path-effect
       effect="skeletal"
       id="path-effect7106"
       is_visible="true"
       pattern="m -4.8108515,-30.279578 c 0,-2.76 2.24,-5 5.00000001,-5 2.75999999,0 4.99999999,2.24 4.99999999,5 0,2.76 -2.24,5 -4.99999999,5 -2.76000001,0 -5.00000001,-2.24 -5.00000001,-5 z"
       copytype="single_stretched"
       prop_scale="0.26458333"
       scale_y_rel="false"
       spacing="0"
       normal_offset="0"
       tang_offset="0"
       prop_units="false"
       vertical_pattern="false"
       fuse_tolerance="0" />
    <inkscape:path-effect
       effect="simplify"
       id="path-effect7104"
       is_visible="true"
       steps="1"
       threshold="0.0181935"
       smooth_angles="360"
       helper_size="0"
       simplify_individual_paths="false"
       simplify_just_coalesce="false"
       simplifyindividualpaths="false"
       simplifyJustCoalesce="false" />
    <inkscape:path-effect
       effect="skeletal"
       id="path-effect7088"
       is_visible="true"
       pattern="m -4.8108515,-30.279578 c 0,-2.76 2.24,-5 5.00000001,-5 2.75999999,0 4.99999999,2.24 4.99999999,5 0,2.76 -2.24,5 -4.99999999,5 -2.76000001,0 -5.00000001,-2.24 -5.00000001,-5 z"
       copytype="single_stretched"
       prop_scale="0.26458333"
       scale_y_rel="false"
       spacing="0"
       normal_offset="0"
       tang_offset="0"
       prop_units="false"
       vertical_pattern="false"
       fuse_tolerance="0" />
    <inkscape:path-effect
       effect="simplify"
       id="path-effect7086"
       is_visible="true"
       steps="1"
       threshold="0.0181935"
       smooth_angles="360"
       helper_size="0"
       simplify_individual_paths="false"
       simplify_just_coalesce="false"
       simplifyindividualpaths="false"
       simplifyJustCoalesce="false" />
    <inkscape:path-effect
       effect="skeletal"
       id="path-effect7082"
       is_visible="true"
       pattern="m -4.8108515,-30.279578 c 0,-2.76 2.24,-5 5.00000001,-5 2.75999999,0 4.99999999,2.24 4.99999999,5 0,2.76 -2.24,5 -4.99999999,5 -2.76000001,0 -5.00000001,-2.24 -5.00000001,-5 z"
       copytype="single_stretched"
       prop_scale="0.26458333"
       scale_y_rel="false"
       spacing="0"
       normal_offset="0"
       tang_offset="0"
       prop_units="false"
       vertical_pattern="false"
       fuse_tolerance="0" />
    <inkscape:path-effect
       effect="simplify"
       id="path-effect7080"
       is_visible="true"
       steps="1"
       threshold="0.0181935"
       smooth_angles="360"
       helper_size="0"
       simplify_individual_paths="false"
       simplify_just_coalesce="false"
       simplifyindividualpaths="false"
       simplifyJustCoalesce="false" />
    <inkscape:path-effect
       effect="skeletal"
       id="path-effect7070"
       is_visible="true"
       pattern="M 0,5 C 0,2.24 2.24,0 5,0 7.76,0 10,2.24 10,5 10,7.76 7.76,10 5,10 2.24,10 0,7.76 0,5 Z"
       copytype="single_stretched"
       prop_scale="0.26458333"
       scale_y_rel="false"
       spacing="0"
       normal_offset="0"
       tang_offset="0"
       prop_units="false"
       vertical_pattern="false"
       fuse_tolerance="0" />
    <inkscape:path-effect
       effect="simplify"
       id="path-effect7068"
       is_visible="true"
       steps="1"
       threshold="0.0181935"
       smooth_angles="360"
       helper_size="0"
       simplify_individual_paths="false"
       simplify_just_coalesce="false"
       simplifyindividualpaths="false"
       simplifyJustCoalesce="false" />
    <inkscape:path-effect
       effect="skeletal"
       id="path-effect7064"
       is_visible="true"
       pattern="M 0,5 C 0,2.24 2.24,0 5,0 7.76,0 10,2.24 10,5 10,7.76 7.76,10 5,10 2.24,10 0,7.76 0,5 Z"
       copytype="single_stretched"
       prop_scale="0.26458333"
       scale_y_rel="false"
       spacing="0"
       normal_offset="0"
       tang_offset="0"
       prop_units="false"
       vertical_pattern="false"
       fuse_tolerance="0" />
    <inkscape:path-effect
       effect="simplify"
       id="path-effect7062"
       is_visible="true"
       steps="1"
       threshold="0.0181935"
       smooth_angles="360"
       helper_size="0"
       simplify_individual_paths="false"
       simplify_just_coalesce="false"
       simplifyindividualpaths="false"
       simplifyJustCoalesce="false" />
    <inkscape:path-effect
       effect="skeletal"
       id="path-effect7058"
       is_visible="true"
       pattern="M 0,5 C 0,2.24 2.24,0 5,0 7.76,0 10,2.24 10,5 10,7.76 7.76,10 5,10 2.24,10 0,7.76 0,5 Z"
       copytype="single_stretched"
       prop_scale="0.26458333"
       scale_y_rel="false"
       spacing="0"
       normal_offset="0"
       tang_offset="0"
       prop_units="false"
       vertical_pattern="false"
       fuse_tolerance="0" />
    <inkscape:path-effect
       effect="simplify"
       id="path-effect7056"
       is_visible="true"
       steps="1"
       threshold="0.0181935"
       smooth_angles="360"
       helper_size="0"
       simplify_individual_paths="false"
       simplify_just_coalesce="false"
       simplifyindividualpaths="false"
       simplifyJustCoalesce="false" />
    <inkscape:path-effect
       effect="skeletal"
       id="path-effect7052"
       is_visible="true"
       pattern="M 0,5 C 0,2.24 2.24,0 5,0 7.76,0 10,2.24 10,5 10,7.76 7.76,10 5,10 2.24,10 0,7.76 0,5 Z"
       copytype="single_stretched"
       prop_scale="0.26458333"
       scale_y_rel="false"
       spacing="0"
       normal_offset="0"
       tang_offset="0"
       prop_units="false"
       vertical_pattern="false"
       fuse_tolerance="0" />
    <inkscape:path-effect
       effect="simplify"
       id="path-effect7050"
       is_visible="true"
       steps="1"
       threshold="0.0181935"
       smooth_angles="360"
       helper_size="0"
       simplify_individual_paths="false"
       simplify_just_coalesce="false"
       simplifyindividualpaths="false"
       simplifyJustCoalesce="false" />
    <inkscape:path-effect
       effect="skeletal"
       id="path-effect7046"
       is_visible="true"
       pattern="M 0,5 C 0,2.24 2.24,0 5,0 7.76,0 10,2.24 10,5 10,7.76 7.76,10 5,10 2.24,10 0,7.76 0,5 Z"
       copytype="single_stretched"
       prop_scale="0.26458333"
       scale_y_rel="false"
       spacing="0"
       normal_offset="0"
       tang_offset="0"
       prop_units="false"
       vertical_pattern="false"
       fuse_tolerance="0" />
    <inkscape:path-effect
       effect="simplify"
       id="path-effect7044"
       is_visible="true"
       steps="1"
       threshold="0.5"
       smooth_angles="360"
       helper_size="0"
       simplify_individual_paths="false"
       simplify_just_coalesce="false"
       simplifyindividualpaths="false"
       simplifyJustCoalesce="false" />
    <inkscape:path-effect
       effect="skeletal"
       id="path-effect7040"
       is_visible="true"
       pattern="M 0,5 C 0,2.24 2.24,0 5,0 7.76,0 10,2.24 10,5 10,7.76 7.76,10 5,10 2.24,10 0,7.76 0,5 Z"
       copytype="single_stretched"
       prop_scale="0.26458333"
       scale_y_rel="false"
       spacing="0"
       normal_offset="0"
       tang_offset="0"
       prop_units="false"
       vertical_pattern="false"
       fuse_tolerance="0" />
    <inkscape:path-effect
       effect="simplify"
       id="path-effect7038"
       is_visible="true"
       steps="1"
       threshold="0.5"
       smooth_angles="360"
       helper_size="0"
       simplify_individual_paths="false"
       simplify_just_coalesce="false"
       simplifyindividualpaths="false"
       simplifyJustCoalesce="false" />
    <inkscape:path-effect
       effect="skeletal"
       id="path-effect6803"
       is_visible="true"
       pattern="m -5.8799296,-74.11178 c 0,-2.76 2.24,-5 5,-5 2.76,0 5,2.24 5,5 0,2.76 -2.24,5 -5,5 -2.76,0 -5,-2.24 -5,-5 z"
       copytype="single_stretched"
       prop_scale="0.26458333"
       scale_y_rel="false"
       spacing="0"
       normal_offset="0"
       tang_offset="0"
       prop_units="false"
       vertical_pattern="false"
       fuse_tolerance="0" />
    <inkscape:path-effect
       effect="simplify"
       id="path-effect6801"
       is_visible="true"
       steps="1"
       threshold="0.0389042"
       smooth_angles="360"
       helper_size="0"
       simplify_individual_paths="false"
       simplify_just_coalesce="false"
       simplifyindividualpaths="false"
       simplifyJustCoalesce="false" />
    <inkscape:path-effect
       effect="skeletal"
       id="path-effect6797"
       is_visible="true"
       pattern="m -5.8799296,-74.11178 c 0,-2.76 2.24,-5 5,-5 2.76,0 5,2.24 5,5 0,2.76 -2.24,5 -5,5 -2.76,0 -5,-2.24 -5,-5 z"
       copytype="single_stretched"
       prop_scale="0.26458333"
       scale_y_rel="false"
       spacing="0"
       normal_offset="0"
       tang_offset="0"
       prop_units="false"
       vertical_pattern="false"
       fuse_tolerance="0" />
    <inkscape:path-effect
       effect="simplify"
       id="path-effect6795"
       is_visible="true"
       steps="1"
       threshold="0.0389042"
       smooth_angles="360"
       helper_size="0"
       simplify_individual_paths="false"
       simplify_just_coalesce="false"
       simplifyindividualpaths="false"
       simplifyJustCoalesce="false" />
    <inkscape:path-effect
       effect="skeletal"
       id="path-effect6791"
       is_visible="true"
       pattern="m -5.8799296,-74.11178 c 0,-2.76 2.24,-5 5,-5 2.76,0 5,2.24 5,5 0,2.76 -2.24,5 -5,5 -2.76,0 -5,-2.24 -5,-5 z"
       copytype="single_stretched"
       prop_scale="0.26458333"
       scale_y_rel="false"
       spacing="0"
       normal_offset="0"
       tang_offset="0"
       prop_units="false"
       vertical_pattern="false"
       fuse_tolerance="0" />
    <inkscape:path-effect
       effect="simplify"
       id="path-effect6789"
       is_visible="true"
       steps="1"
       threshold="0.0389042"
       smooth_angles="360"
       helper_size="0"
       simplify_individual_paths="false"
       simplify_just_coalesce="false"
       simplifyindividualpaths="false"
       simplifyJustCoalesce="false" />
    <inkscape:path-effect
       effect="skeletal"
       id="path-effect6785"
       is_visible="true"
       pattern="m -5.8799296,-74.11178 c 0,-2.76 2.24,-5 5,-5 2.76,0 5,2.24 5,5 0,2.76 -2.24,5 -5,5 -2.76,0 -5,-2.24 -5,-5 z"
       copytype="single_stretched"
       prop_scale="0.26458333"
       scale_y_rel="false"
       spacing="0"
       normal_offset="0"
       tang_offset="0"
       prop_units="false"
       vertical_pattern="false"
       fuse_tolerance="0" />
    <inkscape:path-effect
       effect="simplify"
       id="path-effect6783"
       is_visible="true"
       steps="1"
       threshold="0.0389042"
       smooth_angles="360"
       helper_size="0"
       simplify_individual_paths="false"
       simplify_just_coalesce="false"
       simplifyindividualpaths="false"
       simplifyJustCoalesce="false" />
    <inkscape:path-effect
       effect="skeletal"
       id="path-effect6779"
       is_visible="true"
       pattern="m -5.8799296,-74.11178 c 0,-2.76 2.24,-5 5,-5 2.76,0 5,2.24 5,5 0,2.76 -2.24,5 -5,5 -2.76,0 -5,-2.24 -5,-5 z"
       copytype="single_stretched"
       prop_scale="0.26458333"
       scale_y_rel="false"
       spacing="0"
       normal_offset="0"
       tang_offset="0"
       prop_units="false"
       vertical_pattern="false"
       fuse_tolerance="0" />
    <inkscape:path-effect
       effect="simplify"
       id="path-effect6777"
       is_visible="true"
       steps="1"
       threshold="0.0389042"
       smooth_angles="360"
       helper_size="0"
       simplify_individual_paths="false"
       simplify_just_coalesce="false"
       simplifyindividualpaths="false"
       simplifyJustCoalesce="false" />
    <inkscape:path-effect
       effect="skeletal"
       id="path-effect6773"
       is_visible="true"
       pattern="m -5.8799296,-74.11178 c 0,-2.76 2.24,-5 5,-5 2.76,0 5,2.24 5,5 0,2.76 -2.24,5 -5,5 -2.76,0 -5,-2.24 -5,-5 z"
       copytype="single_stretched"
       prop_scale="0.26458333"
       scale_y_rel="false"
       spacing="0"
       normal_offset="0"
       tang_offset="0"
       prop_units="false"
       vertical_pattern="false"
       fuse_tolerance="0" />
    <inkscape:path-effect
       effect="simplify"
       id="path-effect6771"
       is_visible="true"
       steps="1"
       threshold="0.0389042"
       smooth_angles="360"
       helper_size="0"
       simplify_individual_paths="false"
       simplify_just_coalesce="false"
       simplifyindividualpaths="false"
       simplifyJustCoalesce="false" />
    <inkscape:path-effect
       effect="skeletal"
       id="path-effect6767"
       is_visible="true"
       pattern="m -5.8799296,-74.11178 c 0,-2.76 2.24,-5 5,-5 2.76,0 5,2.24 5,5 0,2.76 -2.24,5 -5,5 -2.76,0 -5,-2.24 -5,-5 z"
       copytype="single_stretched"
       prop_scale="0.26458333"
       scale_y_rel="false"
       spacing="0"
       normal_offset="0"
       tang_offset="0"
       prop_units="false"
       vertical_pattern="false"
       fuse_tolerance="0" />
    <inkscape:path-effect
       effect="simplify"
       id="path-effect6765"
       is_visible="true"
       steps="1"
       threshold="0.0389042"
       smooth_angles="360"
       helper_size="0"
       simplify_individual_paths="false"
       simplify_just_coalesce="false"
       simplifyindividualpaths="false"
       simplifyJustCoalesce="false" />
    <inkscape:path-effect
       effect="skeletal"
       id="path-effect6761"
       is_visible="true"
       pattern="m -5.8799296,-74.11178 c 0,-2.76 2.24,-5 5,-5 2.76,0 5,2.24 5,5 0,2.76 -2.24,5 -5,5 -2.76,0 -5,-2.24 -5,-5 z"
       copytype="single_stretched"
       prop_scale="0.26458333"
       scale_y_rel="false"
       spacing="0"
       normal_offset="0"
       tang_offset="0"
       prop_units="false"
       vertical_pattern="false"
       fuse_tolerance="0" />
    <inkscape:path-effect
       effect="simplify"
       id="path-effect6759"
       is_visible="true"
       steps="1"
       threshold="0.0389042"
       smooth_angles="360"
       helper_size="0"
       simplify_individual_paths="false"
       simplify_just_coalesce="false"
       simplifyindividualpaths="false"
       simplifyJustCoalesce="false" />
    <inkscape:path-effect
       effect="skeletal"
       id="path-effect6755"
       is_visible="true"
       pattern="m -5.8799296,-74.11178 c 0,-2.76 2.24,-5 5,-5 2.76,0 5,2.24 5,5 0,2.76 -2.24,5 -5,5 -2.76,0 -5,-2.24 -5,-5 z"
       copytype="single_stretched"
       prop_scale="0.26458333"
       scale_y_rel="false"
       spacing="0"
       normal_offset="0"
       tang_offset="0"
       prop_units="false"
       vertical_pattern="false"
       fuse_tolerance="0" />
    <inkscape:path-effect
       effect="simplify"
       id="path-effect6753"
       is_visible="true"
       steps="1"
       threshold="0.0389042"
       smooth_angles="360"
       helper_size="0"
       simplify_individual_paths="false"
       simplify_just_coalesce="false"
       simplifyindividualpaths="false"
       simplifyJustCoalesce="false" />
    <inkscape:path-effect
       effect="skeletal"
       id="path-effect6731"
       is_visible="true"
       pattern="m -5.8799296,-74.11178 c 0,-2.76 2.24,-5 5,-5 2.76,0 5,2.24 5,5 0,2.76 -2.24,5 -5,5 -2.76,0 -5,-2.24 -5,-5 z"
       copytype="single_stretched"
       prop_scale="0.26458333"
       scale_y_rel="false"
       spacing="0"
       normal_offset="0"
       tang_offset="0"
       prop_units="false"
       vertical_pattern="false"
       fuse_tolerance="0" />
    <inkscape:path-effect
       effect="simplify"
       id="path-effect6729"
       is_visible="true"
       steps="1"
       threshold="0.0389042"
       smooth_angles="360"
       helper_size="0"
       simplify_individual_paths="false"
       simplify_just_coalesce="false"
       simplifyindividualpaths="false"
       simplifyJustCoalesce="false" />
    <inkscape:path-effect
       effect="skeletal"
       id="path-effect6725"
       is_visible="true"
       pattern="m -5.8799296,-74.11178 c 0,-2.76 2.24,-5 5,-5 2.76,0 5,2.24 5,5 0,2.76 -2.24,5 -5,5 -2.76,0 -5,-2.24 -5,-5 z"
       copytype="single_stretched"
       prop_scale="0.26458333"
       scale_y_rel="false"
       spacing="0"
       normal_offset="0"
       tang_offset="0"
       prop_units="false"
       vertical_pattern="false"
       fuse_tolerance="0" />
    <inkscape:path-effect
       effect="simplify"
       id="path-effect6723"
       is_visible="true"
       steps="1"
       threshold="0.0389042"
       smooth_angles="360"
       helper_size="0"
       simplify_individual_paths="false"
       simplify_just_coalesce="false"
       simplifyindividualpaths="false"
       simplifyJustCoalesce="false" />
    <inkscape:path-effect
       effect="skeletal"
       id="path-effect6719"
       is_visible="true"
       pattern="m -5.8799296,-74.11178 c 0,-2.76 2.24,-5 5,-5 2.76,0 5,2.24 5,5 0,2.76 -2.24,5 -5,5 -2.76,0 -5,-2.24 -5,-5 z"
       copytype="single_stretched"
       prop_scale="0.26458333"
       scale_y_rel="false"
       spacing="0"
       normal_offset="0"
       tang_offset="0"
       prop_units="false"
       vertical_pattern="false"
       fuse_tolerance="0" />
    <inkscape:path-effect
       effect="simplify"
       id="path-effect6717"
       is_visible="true"
       steps="1"
       threshold="0.0389042"
       smooth_angles="360"
       helper_size="0"
       simplify_individual_paths="false"
       simplify_just_coalesce="false"
       simplifyindividualpaths="false"
       simplifyJustCoalesce="false" />
    <inkscape:path-effect
       effect="skeletal"
       id="path-effect6713"
       is_visible="true"
       pattern="m -5.8799296,-74.11178 c 0,-2.76 2.24,-5 5,-5 2.76,0 5,2.24 5,5 0,2.76 -2.24,5 -5,5 -2.76,0 -5,-2.24 -5,-5 z"
       copytype="single_stretched"
       prop_scale="0.26458333"
       scale_y_rel="false"
       spacing="0"
       normal_offset="0"
       tang_offset="0"
       prop_units="false"
       vertical_pattern="false"
       fuse_tolerance="0" />
    <inkscape:path-effect
       effect="simplify"
       id="path-effect6711"
       is_visible="true"
       steps="1"
       threshold="0.0389042"
       smooth_angles="360"
       helper_size="0"
       simplify_individual_paths="false"
       simplify_just_coalesce="false"
       simplifyindividualpaths="false"
       simplifyJustCoalesce="false" />
    <inkscape:path-effect
       effect="skeletal"
       id="path-effect6707"
       is_visible="true"
       pattern="m -5.8799296,-74.11178 c 0,-2.76 2.24,-5 5,-5 2.76,0 5,2.24 5,5 0,2.76 -2.24,5 -5,5 -2.76,0 -5,-2.24 -5,-5 z"
       copytype="single_stretched"
       prop_scale="0.26458333"
       scale_y_rel="false"
       spacing="0"
       normal_offset="0"
       tang_offset="0"
       prop_units="false"
       vertical_pattern="false"
       fuse_tolerance="0" />
    <inkscape:path-effect
       effect="simplify"
       id="path-effect6705"
       is_visible="true"
       steps="1"
       threshold="0.0389042"
       smooth_angles="360"
       helper_size="0"
       simplify_individual_paths="false"
       simplify_just_coalesce="false"
       simplifyindividualpaths="false"
       simplifyJustCoalesce="false" />
    <inkscape:path-effect
       effect="skeletal"
       id="path-effect6701"
       is_visible="true"
       pattern="m -5.8799296,-74.11178 c 0,-2.76 2.24,-5 5,-5 2.76,0 5,2.24 5,5 0,2.76 -2.24,5 -5,5 -2.76,0 -5,-2.24 -5,-5 z"
       copytype="single_stretched"
       prop_scale="0.26458333"
       scale_y_rel="false"
       spacing="0"
       normal_offset="0"
       tang_offset="0"
       prop_units="false"
       vertical_pattern="false"
       fuse_tolerance="0" />
    <inkscape:path-effect
       effect="simplify"
       id="path-effect6699"
       is_visible="true"
       steps="1"
       threshold="0.0389042"
       smooth_angles="360"
       helper_size="0"
       simplify_individual_paths="false"
       simplify_just_coalesce="false"
       simplifyindividualpaths="false"
       simplifyJustCoalesce="false" />
    <inkscape:path-effect
       effect="skeletal"
       id="path-effect6695"
       is_visible="true"
       pattern="m -5.8799296,-74.11178 c 0,-2.76 2.24,-5 5,-5 2.76,0 5,2.24 5,5 0,2.76 -2.24,5 -5,5 -2.76,0 -5,-2.24 -5,-5 z"
       copytype="single_stretched"
       prop_scale="0.26458333"
       scale_y_rel="false"
       spacing="0"
       normal_offset="0"
       tang_offset="0"
       prop_units="false"
       vertical_pattern="false"
       fuse_tolerance="0" />
    <inkscape:path-effect
       effect="simplify"
       id="path-effect6693"
       is_visible="true"
       steps="1"
       threshold="0.0389042"
       smooth_angles="360"
       helper_size="0"
       simplify_individual_paths="false"
       simplify_just_coalesce="false"
       simplifyindividualpaths="false"
       simplifyJustCoalesce="false" />
    <inkscape:path-effect
       effect="skeletal"
       id="path-effect6689"
       is_visible="true"
       pattern="m -5.8799296,-74.11178 c 0,-2.76 2.24,-5 5,-5 2.76,0 5,2.24 5,5 0,2.76 -2.24,5 -5,5 -2.76,0 -5,-2.24 -5,-5 z"
       copytype="single_stretched"
       prop_scale="0.26458333"
       scale_y_rel="false"
       spacing="0"
       normal_offset="0"
       tang_offset="0"
       prop_units="false"
       vertical_pattern="false"
       fuse_tolerance="0" />
    <inkscape:path-effect
       effect="simplify"
       id="path-effect6687"
       is_visible="true"
       steps="1"
       threshold="0.0389042"
       smooth_angles="360"
       helper_size="0"
       simplify_individual_paths="false"
       simplify_just_coalesce="false"
       simplifyindividualpaths="false"
       simplifyJustCoalesce="false" />
    <inkscape:path-effect
       effect="skeletal"
       id="path-effect6683"
       is_visible="true"
       pattern="m -5.8799296,-74.11178 c 0,-2.76 2.24,-5 5,-5 2.76,0 5,2.24 5,5 0,2.76 -2.24,5 -5,5 -2.76,0 -5,-2.24 -5,-5 z"
       copytype="single_stretched"
       prop_scale="0.26458333"
       scale_y_rel="false"
       spacing="0"
       normal_offset="0"
       tang_offset="0"
       prop_units="false"
       vertical_pattern="false"
       fuse_tolerance="0" />
    <inkscape:path-effect
       effect="simplify"
       id="path-effect6681"
       is_visible="true"
       steps="1"
       threshold="0.0389042"
       smooth_angles="360"
       helper_size="0"
       simplify_individual_paths="false"
       simplify_just_coalesce="false"
       simplifyindividualpaths="false"
       simplifyJustCoalesce="false" />
    <inkscape:path-effect
       effect="skeletal"
       id="path-effect6677"
       is_visible="true"
       pattern="m -5.8799296,-74.11178 c 0,-2.76 2.24,-5 5,-5 2.76,0 5,2.24 5,5 0,2.76 -2.24,5 -5,5 -2.76,0 -5,-2.24 -5,-5 z"
       copytype="single_stretched"
       prop_scale="0.26458333"
       scale_y_rel="false"
       spacing="0"
       normal_offset="0"
       tang_offset="0"
       prop_units="false"
       vertical_pattern="false"
       fuse_tolerance="0" />
    <inkscape:path-effect
       effect="simplify"
       id="path-effect6675"
       is_visible="true"
       steps="1"
       threshold="0.0389042"
       smooth_angles="360"
       helper_size="0"
       simplify_individual_paths="false"
       simplify_just_coalesce="false"
       simplifyindividualpaths="false"
       simplifyJustCoalesce="false" />
    <inkscape:path-effect
       effect="skeletal"
       id="path-effect6671"
       is_visible="true"
       pattern="m -5.8799296,-74.11178 c 0,-2.76 2.24,-5 5,-5 2.76,0 5,2.24 5,5 0,2.76 -2.24,5 -5,5 -2.76,0 -5,-2.24 -5,-5 z"
       copytype="single_stretched"
       prop_scale="0.26458333"
       scale_y_rel="false"
       spacing="0"
       normal_offset="0"
       tang_offset="0"
       prop_units="false"
       vertical_pattern="false"
       fuse_tolerance="0" />
    <inkscape:path-effect
       effect="simplify"
       id="path-effect6669"
       is_visible="true"
       steps="1"
       threshold="0.0389042"
       smooth_angles="360"
       helper_size="0"
       simplify_individual_paths="false"
       simplify_just_coalesce="false"
       simplifyindividualpaths="false"
       simplifyJustCoalesce="false" />
    <inkscape:path-effect
       effect="skeletal"
       id="path-effect6665"
       is_visible="true"
       pattern="m -5.8799296,-74.11178 c 0,-2.76 2.24,-5 5,-5 2.76,0 5,2.24 5,5 0,2.76 -2.24,5 -5,5 -2.76,0 -5,-2.24 -5,-5 z"
       copytype="single_stretched"
       prop_scale="0.26458333"
       scale_y_rel="false"
       spacing="0"
       normal_offset="0"
       tang_offset="0"
       prop_units="false"
       vertical_pattern="false"
       fuse_tolerance="0" />
    <inkscape:path-effect
       effect="simplify"
       id="path-effect6663"
       is_visible="true"
       steps="1"
       threshold="0.0389042"
       smooth_angles="360"
       helper_size="0"
       simplify_individual_paths="false"
       simplify_just_coalesce="false"
       simplifyindividualpaths="false"
       simplifyJustCoalesce="false" />
  </defs>
  <sodipodi:namedview
     id="base"
     pagecolor="#7a7a7a"
     bordercolor="#666666"
     borderopacity="1.0"
     inkscape:pageopacity="0"
     inkscape:pageshadow="2"
     inkscape:zoom="0.98994949"
     inkscape:cx="141.49946"
     inkscape:cy="191.17508"
     inkscape:document-units="mm"
     inkscape:current-layer="layer1"
     showgrid="false"
     units="px"
     inkscape:window-width="1280"
     inkscape:window-height="751"
     inkscape:window-x="0"
     inkscape:window-y="30"
     inkscape:window-maximized="1" />
  <metadata
     id="metadata6113">
    <rdf:RDF>
      <cc:Work
         rdf:about="">
        <dc:format>image/svg+xml</dc:format>
        <dc:type
           rdf:resource="http://purl.org/dc/dcmitype/StillImage" />
        <dc:title></dc:title>
      </cc:Work>
    </rdf:RDF>
  </metadata>
  <g
     inkscape:label="Layer 1"
     inkscape:groupmode="layer"
     id="layer1"
     transform="translate(0,-111.79166)">
    <path
       style="fill:#71c837;stroke:none;stroke-width:0.11503305px;stroke-linecap:butt;stroke-linejoin:miter;stroke-opacity:1"
       d="m 10.615177,283.85727 c -0.389675,0 -0.705934,1.82392 -0.705934,4.07114 0,2.24722 0.316259,4.07095 0.705934,4.07095 -0.06274,0.0456 0.07021,0.17588 0.132088,0.33792 -0.01944,-0.003 -0.04479,-0.005 -0.08383,10e-4 -0.13642,-0.005 -0.274486,-0.0267 -0.464373,-0.0536 -0.392182,-0.0588 -0.7887298,-0.14126 -1.2717848,-0.25718 -0.3277153,-0.0831 -0.6652955,-0.15605 -0.8733186,-0.25866 -0.5156583,-0.22079 -0.9606741,-0.53809 -1.3343811,-0.94603 -0.3527778,-0.3851 -0.6063972,-0.81238 -0.7828707,-1.21439 -0.6763388,-1.58569 -0.7170436,-2.91309 -1.0260861,-2.91111 -0.1396611,10e-4 -0.8239831,1.2609 -0.2729978,3.11541 0.1423243,0.49166 0.4212977,1.01577 0.8835202,1.50324 0.4866864,0.51326 1.1160589,0.92153 1.8390145,1.2045 0.4496921,0.16449 0.8856679,0.23562 1.2246312,0.28227 0.5432857,0.0841 1.0418396,0.12806 1.5086592,0.13143 0.221093,0.003 0.441043,-0.006 0.660435,-0.0369 0.153248,-0.002 0.370773,-0.07 0.56199,-0.19825 0.17733,-0.21774 0.116166,-0.3727 0.0064,-0.45252 -0.124838,-0.1102 -0.249345,-0.17577 -0.358483,-0.2138 0.499455,0.0392 1.509539,0.0765 2.825944,-0.11459 0.479434,-0.0663 1.046921,-0.19435 1.575944,-0.45801 0.502343,-0.26472 0.879461,-0.64268 1.046768,-1.0835 0.143711,-0.37134 0.2503,-0.7536 0.330079,-1.15014 0.144526,-0.71834 0.192659,-1.455 0.229429,-2.05424 0.123708,-1.79998 0.363607,-3.08685 0.204061,-3.12565 -0.362267,-0.0881 -1.16423,1.15505 -1.498734,3.05573 -0.11476,0.62582 -0.196241,1.30871 -0.333111,2.00133 -0.0737,0.37295 -0.159858,0.72206 -0.272172,1.05953 -0.08526,0.25835 -0.272018,0.48878 -0.526142,0.63996 -0.273544,0.17729 -0.684779,0.29892 -1.067726,0.39759 -1.230225,0.30632 -2.29521,0.52671 -2.695235,0.67803 0.308687,-0.43491 0.538275,-2.03697 0.538275,-3.9505 0,-2.24722 -0.316259,-4.07113 -0.705935,-4.07113 z m 0.150287,8.54079 c 0.0023,0.01 0.0059,0.0193 0.0074,0.0293 -0.02529,0.0306 -0.02082,0.0247 -0.0074,-0.0293 z"
       id="path6661"
       inkscape:connector-curvature="0" />
    <path
       style="fill:#71c837;stroke:none;stroke-width:0.11503305px;stroke-linecap:butt;stroke-linejoin:miter;stroke-opacity:1"
       d="m 28.494359,287.63428 c -0.389677,0 -0.705935,1.82391 -0.705935,4.07113 0,1.29138 0.104691,2.44063 0.267483,3.18662 0.08053,0.55499 0.251446,0.88832 0.438452,0.88434 0.172144,0 0.329686,-0.35674 0.45224,-0.94786 0.213601,-0.7272 0.475502,-1.7956 0.862287,-2.97775 0.706981,-2.16078 1.390611,-3.93714 0.967351,-4.02721 -0.226837,-0.0483 -0.973926,0.79976 -1.64571,2.1271 -0.113801,-1.36835 -0.355588,-2.31637 -0.636168,-2.31637 z"
       id="path6679"
       inkscape:connector-curvature="0" />
    <path
       style="fill:#71c837;stroke:none;stroke-width:0.11503305px;stroke-linecap:butt;stroke-linejoin:miter;stroke-opacity:1"
       d="m 54.910024,285.10781 c -0.01333,-2.4e-4 -0.02529,0.001 -0.03557,0.005 -0.182999,0.0618 0.06611,0.58222 0.346349,1.39506 0.310835,0.90159 0.549731,1.85421 0.69325,3.24227 0.226131,2.18705 0.184509,4.0633 0.459407,4.64391 -0.323093,-0.17198 -0.987959,-0.43797 -1.831015,-0.84113 -1.298613,-0.62103 -2.804615,-1.47635 -4.290759,-2.73631 -0.315102,-0.26714 -0.608958,-0.53533 -0.882418,-0.80196 -1.158063,-1.15529 -2.264387,-2.07653 -2.878614,-2.7839 -0.608052,-0.70025 -0.85031,-1.19248 -1.029119,-1.17118 -0.160296,0.0191 -0.22816,0.56433 0.206541,1.41538 0.5103,0.99906 1.306211,1.78215 2.539432,3.04603 0.280248,0.29308 0.589848,0.58592 0.929573,0.87445 1.590941,1.35122 3.385581,2.2237 4.893284,2.72331 1.477288,0.48954 2.493387,0.57024 2.555703,0.46167 0.374617,0.1809 2.626131,-1.63853 4.612566,-4.22034 1.973355,-2.5648 3.084101,-4.77547 2.803609,-4.86852 -0.415108,-0.1377 -2.115803,1.90588 -4.062158,4.44255 -1.191637,1.55307 -2.289226,2.9175 -2.893228,3.76087 0.04167,-0.15808 0.08234,-0.33168 0.120505,-0.52537 0.16896,-0.85752 0.310787,-2.14529 0.157733,-3.4872 -0.160245,-1.40492 -0.603605,-2.52983 -1.171962,-3.38229 -0.512984,-0.76943 -1.043152,-1.18852 -1.243107,-1.19206 z m -6.764286,0.54661 c -0.05077,-1.9e-4 -0.08997,0.008 -0.11692,0.0263 -0.263472,0.17487 0.98123,1.33796 2.865929,2.55875 1.894593,1.22718 3.716134,2.0015 3.979706,1.79631 0.241433,-0.18795 -1.141809,-1.26678 -2.993604,-2.46702 -1.688907,-1.09468 -3.244379,-1.91265 -3.735111,-1.91439 z m -5.536622,1.73041 c -0.226464,3.5e-4 -0.512099,0.80219 -0.0648,2.03996 0.273026,0.76998 0.799068,1.68712 1.722368,2.55929 0.314974,0.29753 0.655521,0.56996 1.015609,0.81661 1.214273,0.83935 2.601277,1.22922 3.657072,1.34472 1.052875,0.11518 1.656023,-0.0352 1.656464,-0.13326 5.33e-4,-0.12132 -0.583428,-0.18773 -1.412421,-0.43 -0.858198,-0.2508 -1.896064,-0.67334 -2.893228,-1.40623 -0.301707,-0.22382 -0.591747,-0.4664 -0.869458,-0.72947 -0.809445,-0.76677 -1.369852,-1.57103 -1.775866,-2.24919 -0.626569,-1.05888 -0.797855,-1.81282 -1.03574,-1.81243 z"
       id="path6691"
       inkscape:connector-curvature="0" />
    <path
       style="fill:#71c837;stroke:none;stroke-width:0.11503305px;stroke-linecap:butt;stroke-linejoin:miter;stroke-opacity:1"
       d="m 78.260866,284.8307 c -0.389676,0 -0.705934,2.03581 -0.705934,4.54433 0,2.00928 0.203215,3.71236 0.484225,4.31186 -0.130031,-0.0745 -0.3124,-0.15875 -0.553441,-0.24713 -0.569031,-0.20863 -1.451796,-0.40015 -2.354402,-0.65991 -0.450193,-0.13316 -0.933766,-0.28918 -1.293845,-0.49956 -0.29386,-0.16646 -0.543693,-0.38866 -0.6938,-0.64069 -0.01598,-0.0268 -0.03064,-0.054 -0.04412,-0.0811 -0.450075,-0.89629 -1.378928,-2.45067 -1.647364,-2.90728 -0.427048,-0.7264 -0.701557,-1.19069 -0.892897,-1.16972 -0.186773,0.0205 -0.253851,0.53042 -0.05763,1.34015 0.217827,0.89891 0.642093,1.79611 1.258272,3.0323 0.0224,0.0446 0.04696,0.0886 0.07336,0.13235 0.248507,0.41166 0.654976,0.75469 1.143282,1.00534 0.576466,0.28889 1.194978,0.4549 1.731194,0.56014 0.874647,0.17777 2.148448,0.30112 2.5364,0.34287 0.590417,0.0635 0.955222,0.10398 1.016712,0.0249 0.389676,0 0.705935,-2.03599 0.705935,-4.54452 0,-2.50852 -0.316259,-4.54434 -0.705935,-4.54434 z"
       id="path6721"
       inkscape:connector-curvature="0" />
    <path
       style="fill:#71c837;stroke:none;stroke-width:0.11503305px;stroke-linecap:butt;stroke-linejoin:miter;stroke-opacity:1"
       d="m 84.517984,280.63387 c -0.009,3.9e-4 -0.01748,0.002 -0.02538,0.005 -0.102491,0.0335 0.356629,1.14644 1.070208,2.91314 0.337754,0.84163 0.890447,2.23346 1.421519,3.39713 0.206231,0.4523 0.436515,0.93526 0.707038,1.41721 0.171535,0.31267 0.376042,0.66415 0.69352,1.00808 0.07741,0.0967 0.219185,0.22144 0.452514,0.35036 0.176772,0.12383 0.511143,0.16534 0.964599,0.0891 0.175225,-0.0735 0.308005,-0.14673 0.401772,-0.21454 0.108508,-0.0784 0.164326,-0.14937 0.173453,-0.2052 0.123636,-0.19323 0.187517,-0.37213 0.226949,-0.52464 0.356008,-1.37676 2.001706,-2.74196 3.068329,-3.76506 0.774753,-0.72783 1.35017,-1.33525 1.776423,-1.98377 0.923878,-1.40421 0.560837,-2.29095 0.453344,-2.29257 -0.172905,-0.003 -0.256949,0.86383 -1.265169,2.0222 -0.501467,0.5765 -1.082854,1.07827 -1.921746,1.77728 -1.127893,0.921 -2.822867,2.25158 -3.430394,3.87911 -0.100888,-0.14932 -0.195324,-0.30811 -0.293134,-0.47026 -0.266221,-0.45052 -0.507671,-0.91755 -0.733509,-1.35882 -0.716616,-1.40119 -1.11324,-2.24065 -1.71823,-3.33123 -0.938338,-1.6965 -1.743557,-2.72433 -2.022119,-2.71214 z m 5.144499,8.32295 c 0.0116,0.005 0.02119,0.0121 0.02675,0.0207 -0.0016,0.005 -0.0093,-0.003 -0.02675,-0.0207 z"
       id="path6751"
       inkscape:connector-curvature="0" />
    <path
       style="fill:#71c837;stroke:none;stroke-width:0.11503305px;stroke-linecap:butt;stroke-linejoin:miter;stroke-opacity:1"
       d="m 114.11259,283.60081 c -0.17972,1.1e-4 -0.49207,0.89487 -0.38303,2.3323 0.10684,1.20151 0.72074,2.39817 1.77173,3.81284 0.27019,0.36369 0.55322,0.72201 0.81596,1.0533 0.67523,0.86504 1.15811,1.49275 1.57043,2.19776 0.79115,1.35338 0.84201,2.33521 1.07407,2.34346 0.16914,0.0593 0.81135,-0.51655 1.79654,-1.45949 0.82701,-0.79153 2.49596,-2.41374 3.74339,-3.78576 0.0647,-0.0713 0.12948,-0.14326 0.19413,-0.21564 2.30568,-2.58114 3.34005,-4.55072 3.57269,-5.73638 v -1.8e-4 c -0.006,-0.10741 -0.0158,-0.19922 -0.0292,-0.27495 -0.0146,-0.0737 -0.0324,-0.13289 -0.0532,-0.17665 -0.0124,-0.026 -0.0259,-0.0467 -0.0405,-0.0615 -0.0492,-0.0177 -0.0556,-0.0277 -0.056,-0.0289 0,0 -2.7e-4,0 -2.7e-4,0 -7.9e-4,10e-4 -0.0104,0.01 -0.0643,0.02 -0.0193,0.0123 -0.0393,0.0305 -0.0601,0.054 -0.035,0.0396 -0.0718,0.0948 -0.11057,0.16457 -0.0372,0.0653 -0.0757,0.14287 -0.11472,0.23119 -1.3451,1.79718 -1.389,2.13925 -4.25905,5.33276 0.007,-0.008 -0.19597,0.21795 -0.18861,0.20978 -1.47776,1.64355 -2.49713,2.75787 -3.37801,3.93714 -0.25712,0.34422 -0.46144,0.64469 -0.62045,0.90154 0.0209,-0.43221 -0.052,-1.00576 -0.32621,-1.68703 -0.3068,-0.76365 -0.779,-1.51311 -1.41077,-2.37806 -0.25487,-0.35477 -0.50712,-0.69025 -0.78012,-1.05806 -1.0482,-1.41226 -1.67491,-2.38135 -1.9551,-3.47621 -0.35802,-1.35225 -0.44564,-2.25192 -0.70869,-2.25176 z"
       id="path6757"
       inkscape:connector-curvature="0" />
    <path
       style="fill:#71c837;stroke:none;stroke-width:0.11503305px;stroke-linecap:butt;stroke-linejoin:miter;stroke-opacity:1"
       d="m 140.11446,277.41942 c -0.17775,-0.039 -0.70236,0.59932 -1.3421,1.68667 -0.62425,1.061 -1.41387,2.65479 -1.83406,4.41071 l -0.002,0.01 c -0.28511,1.18679 -0.33494,2.25841 -0.22998,3.19467 -0.57199,-0.65959 -1.28744,-1.34969 -2.17158,-2.17122 l -0.009,-0.008 c -0.9637,-0.91069 -1.67955,-1.60002 -2.28656,-2.38136 -1.14822,-1.4763 -1.2763,-2.65769 -1.53762,-2.65813 -0.2111,-3.7e-4 -0.66173,1.22763 0.4255,2.99642 0.53127,0.86448 1.28364,1.68108 2.24464,2.58309 l 0.009,0.009 c 1.77289,1.6908 2.39812,2.11149 3.47039,3.36015 0.29564,0.34428 0.5098,0.63056 0.69021,0.87189 0.22067,0.35664 0.42618,0.56444 0.538,0.59182 0.0145,0.003 0.0277,0.005 0.0389,0.002 0.12577,-0.0174 0.17475,-0.35972 -0.004,-0.91747 -0.0406,-0.2705 -0.0848,-0.57485 -0.12106,-0.94585 -0.11715,-1.20017 -0.0802,-2.59524 0.33753,-4.38086 l 0.002,-0.01 c 0.38284,-1.61958 1.03223,-3.31755 1.39395,-4.36091 0.3907,-1.12697 0.57919,-1.84051 0.38744,-1.88254 z"
       id="path6769"
       inkscape:connector-curvature="0" />
    <path
       style="fill:#71c837;stroke:none;stroke-width:0.11503305px;stroke-linecap:butt;stroke-linejoin:miter;stroke-opacity:1"
       d="m 154.91702,277.22959 c -0.38121,0.0696 -2.8868,2.4515 -4.07374,6.00073 -0.32448,0.9703 -0.48903,1.86797 -0.53992,2.68046 -0.41897,-0.67996 -0.95042,-1.40812 -1.60022,-2.23857 l -0.002,-0.003 c -0.84024,-1.08955 -1.44902,-1.85896 -2.00778,-2.76431 -1.02981,-1.67114 -1.1831,-2.91723 -1.44413,-2.91752 -0.24521,-2.7e-4 -0.60437,1.29788 0.29369,3.1921 0.44845,0.94826 1.08594,1.86363 1.90217,2.91753 l 0.002,0.003 c 1.40292,1.83786 2.07989,2.60908 2.82512,3.93147 0.13037,0.23132 0.23884,0.44287 0.33422,0.63593 0.22273,0.6931 0.50078,1.07661 0.63287,1.05989 0.14379,-0.007 0.27468,-0.46106 0.14532,-1.2186 7e-4,-0.20438 0.003,-0.4265 0.011,-0.67199 0.0403,-1.20872 0.22132,-2.62361 0.82644,-4.40156 1.16173,-3.41343 3.073,-6.08841 2.72528,-6.20519 -0.008,-0.003 -0.0178,-0.003 -0.03,-3.7e-4 z"
       id="path6781"
       inkscape:connector-curvature="0" />
    <path
       style="fill:#71c837;stroke:none;stroke-width:0.11503305px;stroke-linecap:butt;stroke-linejoin:miter;stroke-opacity:1"
       d="m 160.93718,280.25961 c -0.19328,2e-5 -0.41391,0.69569 -0.48588,1.81883 -0.065,0.99751 0.049,2.37047 0.71779,3.79784 0.14718,0.31412 0.3145,0.61667 0.50077,0.90722 0.83191,1.30061 2.03188,2.20455 3.0835,2.74491 1.03827,0.5335 1.80824,0.66549 1.88865,0.57753 0.15362,0.0753 0.73226,-0.26445 1.61675,-0.82155 0.72722,-0.45803 2.26859,-1.44231 3.4031,-2.29074 0.0629,-0.0471 0.12598,-0.0947 0.1889,-0.14279 2.11727,-1.61833 3.06903,-3.00627 3.25778,-3.87948 4e-5,-0.0133 5.3e-4,-0.0289 5.3e-4,-0.0415 -2.3e-4,-0.0278 -8.1e-4,-0.0541 -0.002,-0.0789 -0.002,-0.0276 -0.006,-0.0534 -0.01,-0.0773 -0.002,-0.0118 -0.003,-0.0259 -0.006,-0.0379 -0.0454,-0.12234 -0.0998,-0.1906 -0.16215,-0.20264 -0.0151,-10e-4 -0.0155,-10e-4 -0.0154,-10e-4 1e-5,0 -2e-4,-2.6e-4 -0.0154,-1.8e-4 -0.0641,0.006 -0.13185,0.0681 -0.20047,0.17445 -0.008,0.009 -0.0168,0.0219 -0.0248,0.032 -0.0152,0.0171 -0.0309,0.0349 -0.0466,0.0536 -0.013,0.0168 -0.0259,0.0343 -0.0389,0.0523 -0.006,0.008 -0.0127,0.0188 -0.0187,0.0271 v 6.8e-4 c -1.09108,1.0959 -1.33313,1.50045 -3.78585,3.36619 0.008,-0.005 -0.1869,0.14201 -0.17923,0.1362 -1.34433,1.01897 -2.27662,1.70957 -3.08903,2.48771 -0.56232,0.53861 -0.87105,0.94922 -0.9064,1.1386 -0.143,-0.1587 -0.62914,-0.45151 -1.2307,-0.91363 -0.80462,-0.61809 -1.71072,-1.47042 -2.42058,-2.6552 -0.15989,-0.26742 -0.30716,-0.5448 -0.44232,-0.83327 -0.60737,-1.29633 -0.85757,-2.5961 -1.02056,-3.54339 -0.18546,-1.09663 -0.33703,-1.79541 -0.55703,-1.7954 z"
       id="path6793"
       inkscape:connector-curvature="0" />
    <path
       style="fill:#71c837;stroke:none;stroke-width:0.08680147px;stroke-linecap:butt;stroke-linejoin:miter;stroke-opacity:1"
       d="m 250.0106,272.33045 c -0.27166,0 -0.49213,1.48969 -0.49213,3.32512 0,1.83543 0.22047,3.32497 0.49213,3.32497 -0.0437,0.0372 0.049,0.14365 0.0921,0.276 -0.0135,-0.003 -0.0312,-0.003 -0.0585,0.001 -0.0951,-0.005 -0.19135,-0.0218 -0.32373,-0.0438 -0.27341,-0.048 -0.54985,-0.11538 -0.88661,-0.21007 -0.22846,-0.0679 -0.4638,-0.12744 -0.60882,-0.21125 -0.35948,-0.18033 -0.66972,-0.43949 -0.93024,-0.77267 -0.24593,-0.31453 -0.42274,-0.66352 -0.54577,-0.99186 -0.4715,-1.29513 -0.49987,-2.37928 -0.71532,-2.37767 -0.0974,6.9e-4 -0.57442,1.02985 -0.19031,2.54452 0.0992,0.40158 0.2937,0.82964 0.61593,1.22779 0.33928,0.41921 0.77804,0.75266 1.28204,0.98378 0.3135,0.13435 0.61743,0.19245 0.85373,0.23055 0.37875,0.0687 0.7263,0.10459 1.05174,0.10734 0.15414,0.002 0.30747,-0.005 0.46042,-0.0302 0.10683,-0.002 0.25848,-0.0572 0.39178,-0.16192 0.12362,-0.17784 0.081,-0.3044 0.005,-0.3696 -0.087,-0.09 -0.17383,-0.14355 -0.24991,-0.17462 0.34818,0.032 1.05235,0.0625 1.97006,-0.0936 0.33423,-0.0541 0.72984,-0.15874 1.09864,-0.37408 0.3502,-0.21622 0.61311,-0.52491 0.72974,-0.88496 0.10019,-0.30329 0.1745,-0.6155 0.23012,-0.93937 0.10075,-0.58672 0.1343,-1.18839 0.15994,-1.67782 0.0862,-1.47015 0.25348,-2.52121 0.14225,-2.5529 -0.25255,-0.072 -0.81162,0.9434 -1.04481,2.49579 -0.08,0.51114 -0.13681,1.0689 -0.23223,1.6346 -0.0514,0.30461 -0.11144,0.58975 -0.18974,0.86538 -0.0594,0.21101 -0.18963,0.39921 -0.36678,0.52268 -0.1907,0.14481 -0.47739,0.24415 -0.74436,0.32474 -0.85763,0.25019 -1.60007,0.4302 -1.87894,0.55379 0.21519,-0.35523 0.37525,-1.66371 0.37525,-3.2266 0,-1.83543 -0.22047,-3.32512 -0.49213,-3.32512 z m 0.10477,6.97573 c 0.002,0.008 0.004,0.0157 0.005,0.0239 -0.0176,0.025 -0.0145,0.0202 -0.005,-0.0239 z"
       id="path6661-7"
       inkscape:connector-curvature="0" />
    <path
       inkscape:connector-curvature="0"
       style="fill:#71c837;stroke:none;stroke-width:0.08680147px;stroke-linecap:butt;stroke-linejoin:miter;stroke-opacity:1"
       d="m 217.03378,272.1177 c -0.27166,0 -0.49213,1.4897 -0.49213,3.32513 0,1.05474 0.073,1.9934 0.18647,2.60269 0.0562,0.45329 0.1753,0.72554 0.30566,0.72229 0.12001,0 0.22983,-0.29137 0.31527,-0.77418 0.14891,-0.59393 0.33149,-1.46656 0.60113,-2.43209 0.49287,-1.76483 0.96944,-3.21568 0.67437,-3.28924 -0.15813,-0.0394 -0.67895,0.6532 -1.14727,1.73732 -0.0794,-1.11761 -0.2479,-1.89192 -0.4435,-1.89192 z"
       id="path6679-0" />
    <path
       style="fill:#71c837;stroke:none;stroke-width:0.08680147px;stroke-linecap:butt;stroke-linejoin:miter;stroke-opacity:1"
       d="m 129.38686,269.17286 c -0.009,-1.9e-4 -0.0176,10e-4 -0.0248,0.004 -0.12758,0.0505 0.0461,0.47554 0.24145,1.13943 0.2167,0.73638 0.38324,1.51443 0.4833,2.64813 0.15763,1.78629 0.12862,3.31873 0.32026,3.79295 -0.22524,-0.14047 -0.68874,-0.35772 -1.27646,-0.687 -0.90531,-0.50723 -1.95519,-1.20581 -2.99124,-2.2349 -0.21967,-0.21819 -0.42453,-0.43723 -0.61516,-0.655 -0.80733,-0.94359 -1.57859,-1.69602 -2.00678,-2.27376 -0.4239,-0.57194 -0.59279,-0.97398 -0.71744,-0.95658 -0.11175,0.0156 -0.15906,0.46092 0.14398,1.15602 0.35575,0.81599 0.91061,1.45559 1.77033,2.48787 0.19537,0.23937 0.4112,0.47855 0.64804,0.71421 1.1091,1.10361 2.3602,1.81621 3.41128,2.22428 1.02986,0.39983 1.73822,0.46575 1.78167,0.37706 0.26116,0.14776 1.83076,-1.33827 3.21558,-3.44697 1.37569,-2.09482 2.15003,-3.9004 1.95448,-3.9764 -0.28938,-0.11247 -1.47499,1.55664 -2.83186,3.62848 -0.83073,1.26848 -1.5959,2.38288 -2.01697,3.07171 0.0291,-0.12911 0.0574,-0.2709 0.084,-0.4291 0.11779,-0.70039 0.21665,-1.75218 0.10996,-2.84818 -0.11172,-1.14749 -0.42079,-2.06626 -0.81702,-2.76252 -0.35761,-0.62842 -0.72721,-0.97072 -0.86661,-0.97362 z m -4.71562,0.44644 c -0.0354,-1.5e-4 -0.0627,0.007 -0.0815,0.0215 -0.18367,0.14282 0.68405,1.09278 1.99794,2.08986 1.32079,1.00232 2.59065,1.63475 2.7744,1.46715 0.1683,-0.15351 -0.796,-1.03464 -2.08695,-2.01495 -1.1774,-0.89408 -2.26177,-1.56216 -2.60388,-1.56359 z m -3.85976,1.41333 c -0.15788,2.8e-4 -0.35701,0.65519 -0.0452,1.66614 0.19033,0.62889 0.55706,1.37797 1.20072,2.09032 0.21958,0.24301 0.45699,0.46551 0.70802,0.66697 0.84651,0.68555 1.81344,1.00397 2.54947,1.09831 0.734,0.0941 1.15448,-0.0287 1.15478,-0.10884 4.1e-4,-0.0991 -0.40673,-0.15334 -0.98465,-0.35121 -0.59828,-0.20485 -1.32181,-0.54995 -2.01697,-1.14854 -0.21033,-0.18281 -0.41252,-0.38094 -0.60612,-0.5958 -0.5643,-0.62626 -0.95498,-1.28315 -1.23802,-1.83704 -0.43681,-0.86485 -0.55622,-1.48063 -0.72205,-1.48031 z"
       id="path6691-9"
       inkscape:connector-curvature="0" />
    <path
       inkscape:connector-curvature="0"
       style="fill:#71c837;stroke:none;stroke-width:0.08680147px;stroke-linecap:butt;stroke-linejoin:miter;stroke-opacity:1"
       d="m 179.29767,271.1465 c -0.27166,0 -0.49213,1.66276 -0.49213,3.71161 0,1.64109 0.14166,3.03209 0.33757,3.52173 -0.0907,-0.0609 -0.21779,-0.12966 -0.38582,-0.20184 -0.3967,-0.17041 -1.0121,-0.32683 -1.64134,-0.53898 -0.31385,-0.10876 -0.65096,-0.23619 -0.90199,-0.40802 -0.20486,-0.13597 -0.37902,-0.31745 -0.48367,-0.52329 -0.0111,-0.0219 -0.0213,-0.0441 -0.0308,-0.0662 -0.31377,-0.73204 -0.9613,-2.00159 -1.14844,-2.37453 -0.29771,-0.5933 -0.48908,-0.9725 -0.62247,-0.95537 -0.1302,0.0167 -0.17696,0.43321 -0.0402,1.09457 0.15186,0.73418 0.44763,1.46698 0.87719,2.47664 0.0156,0.0364 0.0327,0.0724 0.0512,0.1081 0.17324,0.33623 0.4566,0.6164 0.79701,0.82112 0.40188,0.23595 0.83306,0.37154 1.20688,0.4575 0.60974,0.1452 1.49776,0.24594 1.76822,0.28003 0.41159,0.0519 0.66591,0.0849 0.70877,0.0203 0.27166,0 0.49214,-1.66291 0.49214,-3.71176 0,-2.04885 -0.22048,-3.71161 -0.49214,-3.71161 z"
       id="path6721-3" />
    <path
       inkscape:connector-curvature="0"
       style="fill:#71c837;stroke:none;stroke-width:0.08680147px;stroke-linecap:butt;stroke-linejoin:miter;stroke-opacity:1"
       d="m 3.6715237,252.94276 c -0.00644,2.9e-4 -0.012244,0.002 -0.017642,0.003 -0.071453,0.0273 0.2486193,0.93636 0.7460833,2.37931 0.2354644,0.68741 0.6207545,1.8242 0.9909888,2.77463 0.1437679,0.36942 0.3043074,0.76388 0.4928965,1.15751 0.1195849,0.25538 0.2621525,0.54245 0.4834794,0.82336 0.053972,0.079 0.1528063,0.18087 0.3154644,0.28617 0.1232342,0.10113 0.3563304,0.13504 0.6724553,0.0728 0.1221548,-0.06 0.2147214,-0.11985 0.2800924,-0.17523 0.075642,-0.0641 0.1145583,-0.122 0.1209142,-0.1676 0.086195,-0.15783 0.1307258,-0.30394 0.1582115,-0.4285 0.2481922,-1.12448 1.3954589,-2.23951 2.1390455,-3.07514 0.54011,-0.59446 0.941253,-1.09057 1.238399,-1.62025 0.644076,-1.14691 0.390994,-1.87114 0.316045,-1.87248 -0.120536,-0.002 -0.179124,0.70554 -0.881989,1.65165 -0.349588,0.47087 -0.7548963,0.88068 -1.339715,1.4516 -0.7862967,0.75223 -1.9679204,1.83899 -2.3914503,3.16828 -0.070325,-0.12195 -0.1361634,-0.25165 -0.2043539,-0.38409 -0.1855924,-0.36796 -0.3539136,-0.74941 -0.5113518,-1.10982 -0.4995825,-1.14442 -0.7760821,-1.83006 -1.1978398,-2.7208 -0.654153,-1.38562 -1.2154977,-2.22511 -1.4096854,-2.21516 z m 3.5864066,6.79781 c 0.00806,0.005 0.014822,0.01 0.018689,0.0169 -8.055e-4,0.004 -0.00644,-0.002 -0.018689,-0.0169 z"
       id="path6751-6" />
    <path
       inkscape:connector-curvature="0"
       style="fill:#71c837;stroke:none;stroke-width:0.08680147px;stroke-linecap:butt;stroke-linejoin:miter;stroke-opacity:1"
       d="m 191.5713,276.57383 c -0.12528,7e-5 -0.34303,0.73089 -0.26702,1.90491 0.0745,0.98134 0.50245,1.95872 1.23514,3.11416 0.18835,0.29705 0.38566,0.5897 0.56883,0.86029 0.47073,0.70653 0.80736,1.21922 1.0948,1.79503 0.55154,1.10538 0.587,1.9073 0.74877,1.91404 0.11792,0.0484 0.56561,-0.42189 1.25244,-1.19204 0.57653,-0.64649 1.74001,-1.97144 2.60964,-3.09204 0.0451,-0.0583 0.0903,-0.11702 0.13534,-0.17613 1.60737,-2.10817 2.32846,-3.71683 2.49064,-4.68522 v -1.6e-4 c -0.004,-0.0877 -0.011,-0.16271 -0.0204,-0.22456 -0.0102,-0.0602 -0.0226,-0.10855 -0.0371,-0.14428 -0.009,-0.0213 -0.018,-0.0381 -0.0283,-0.0502 -0.0343,-0.0144 -0.0387,-0.0226 -0.0391,-0.0236 0,0 -2e-4,0 -2e-4,0 -5.3e-4,6.8e-4 -0.007,0.008 -0.0448,0.0163 -0.0134,0.0101 -0.0274,0.0248 -0.0419,0.0441 -0.0243,0.0324 -0.0501,0.0774 -0.0771,0.13441 -0.0259,0.0534 -0.0528,0.1167 -0.08,0.18883 -0.93772,1.46786 -0.96832,1.74724 -2.96912,4.35556 0.006,-0.007 -0.13662,0.17801 -0.13149,0.17134 -1.03021,1.34238 -1.74085,2.2525 -2.35493,3.21568 -0.17925,0.28115 -0.32169,0.52656 -0.43254,0.73635 0.0147,-0.35302 -0.0362,-0.82147 -0.22741,-1.3779 -0.21389,-0.62372 -0.54308,-1.23584 -0.9835,-1.9423 -0.17768,-0.28976 -0.35353,-0.56376 -0.54385,-0.86417 -0.73074,-1.15347 -1.16764,-1.94498 -1.36297,-2.83922 -0.24959,-1.10446 -0.31067,-1.83926 -0.49406,-1.83913 z"
       id="path6757-0" />
    <path
       inkscape:connector-curvature="0"
       style="fill:#71c837;stroke:none;stroke-width:0.08680147px;stroke-linecap:butt;stroke-linejoin:miter;stroke-opacity:1"
       d="m 94.047907,267.72876 c -0.123919,-0.0318 -0.489643,0.48949 -0.935631,1.37759 -0.435179,0.86657 -0.985656,2.1683 -1.278581,3.60246 l -0.0016,0.008 c -0.198764,0.96932 -0.233491,1.84456 -0.160323,2.60927 -0.398759,-0.53873 -0.897528,-1.10237 -1.513884,-1.77336 l -0.0064,-0.007 c -0.671827,-0.74381 -1.170878,-1.30683 -1.594046,-1.94499 -0.800458,-1.20577 -0.889746,-2.17069 -1.071923,-2.17104 -0.147167,-2.9e-4 -0.461318,1.00268 0.296631,2.44734 0.370363,0.70607 0.894869,1.37304 1.564811,2.10975 l 0.0064,0.007 c 1.235943,1.38096 1.671814,1.72457 2.419331,2.74442 0.206102,0.28119 0.355404,0.51502 0.481175,0.71212 0.15383,0.29129 0.297098,0.46101 0.375052,0.48338 0.01007,0.003 0.01933,0.004 0.02707,0.002 0.08769,-0.0142 0.121824,-0.2938 -0.0024,-0.74935 -0.02828,-0.22093 -0.05913,-0.46951 -0.08439,-0.77253 -0.08168,-0.98024 -0.05591,-2.11968 0.235303,-3.57809 l 0.0024,-0.008 c 0.266889,-1.3228 0.719596,-2.70964 0.971768,-3.56181 0.272367,-0.92046 0.40377,-1.50323 0.270095,-1.53756 z"
       id="path6769-6" />
    <path
       inkscape:connector-curvature="0"
       style="fill:#71c837;stroke:none;stroke-width:0.08680147px;stroke-linecap:butt;stroke-linejoin:miter;stroke-opacity:1"
       d="m 193.99107,263.77611 c -0.26575,0.0569 -2.01248,2.00228 -2.83994,4.90113 -0.22621,0.7925 -0.34092,1.52568 -0.37641,2.18929 -0.29206,-0.55537 -0.66256,-1.15009 -1.11556,-1.82837 l -0.002,-0.002 c -0.58575,-0.88991 -1.01015,-1.51832 -1.39968,-2.25777 -0.71792,-1.36492 -0.82478,-2.38267 -1.00676,-2.38291 -0.17094,-2.3e-4 -0.42133,1.06006 0.20474,2.60718 0.31264,0.77449 0.75705,1.52212 1.32607,2.3829 l 0.002,0.002 c 0.97802,1.50108 1.44996,2.13097 1.96949,3.21105 0.0909,0.18894 0.1665,0.36172 0.23298,0.5194 0.15529,0.56609 0.34913,0.87933 0.4412,0.86567 0.10025,-0.005 0.1915,-0.37657 0.10131,-0.9953 0,-0.16692 0.002,-0.34835 0.008,-0.54885 0.0281,-0.98723 0.15429,-2.14286 0.57614,-3.59499 0.80987,-2.78795 2.1423,-4.97276 1.89989,-5.06813 -0.006,-0.002 -0.0124,-0.002 -0.0209,-2.9e-4 z"
       id="path6781-2" />
    <path
       style="fill:#71c837;stroke:none;stroke-width:0.08680147px;stroke-linecap:butt;stroke-linejoin:miter;stroke-opacity:1"
       d="m 100.24626,269.33141 c -0.13474,2e-5 -0.28855,0.56821 -0.338728,1.48555 -0.04527,0.81471 0.03416,1.93608 0.500388,3.1019 0.10261,0.25655 0.21927,0.50367 0.34911,0.74097 0.57996,1.06229 1.4165,1.80057 2.14963,2.24193 0.72381,0.43573 1.26059,0.54354 1.31663,0.4717 0.1071,0.0615 0.51049,-0.21599 1.1271,-0.67101 0.50697,-0.37409 1.58152,-1.17801 2.37242,-1.87098 0.0438,-0.0385 0.0878,-0.0773 0.13168,-0.11662 1.47602,-1.32177 2.13953,-2.45538 2.27111,-3.16858 3e-5,-0.0109 0,-0.0236 0,-0.0339 0,-0.0227 -8e-4,-0.0442 -0.002,-0.0645 -0.002,-0.0226 -0.004,-0.0436 -0.007,-0.0631 -0.002,-0.01 -0.002,-0.0211 -0.004,-0.031 -0.0317,-0.0999 -0.0696,-0.15568 -0.11305,-0.16551 -0.0105,-0.001 -0.0108,-0.001 -0.0107,-0.001 0,0 0,-2.1e-4 -0.0108,-1.6e-4 -0.0447,0.005 -0.0919,0.0556 -0.13975,0.14249 -0.006,0.008 -0.0117,0.0179 -0.0173,0.0262 -0.0106,0.014 -0.0216,0.0285 -0.0325,0.0438 -0.009,0.0138 -0.018,0.028 -0.0271,0.0428 -0.004,0.007 -0.009,0.0153 -0.0131,0.0222 v 4.5e-4 c -0.76064,0.89509 -0.92938,1.2255 -2.63926,2.74936 0.006,-0.005 -0.1303,0.11598 -0.12495,0.11124 -0.93717,0.83225 -1.58711,1.3963 -2.15346,2.03186 -0.39201,0.4399 -0.60724,0.77527 -0.63188,0.92995 -0.0997,-0.12962 -0.43861,-0.36878 -0.85796,-0.74621 -0.56094,-0.50484 -1.19261,-1.20098 -1.68749,-2.16866 -0.11145,-0.21842 -0.21413,-0.44496 -0.30835,-0.68058 -0.42341,-1.05878 -0.59784,-2.12037 -0.71147,-2.89408 -0.12929,-0.89567 -0.23494,-1.46641 -0.38832,-1.4664 z"
       id="path6793-6"
       inkscape:connector-curvature="0" />
    <path
       style="fill:#71c837;stroke:none;stroke-width:0.11503305px;stroke-linecap:butt;stroke-linejoin:miter;stroke-opacity:1"
       d="m 68.916914,275.075 c -0.389676,0 -0.705933,1.82392 -0.705933,4.07114 0,2.24722 0.316257,4.07095 0.705933,4.07095 -0.06275,0.0456 0.0702,0.17588 0.132087,0.33792 -0.01944,-0.003 -0.04479,-0.005 -0.08383,0.001 -0.13642,-0.005 -0.274487,-0.0267 -0.464374,-0.0536 -0.392181,-0.0588 -0.78873,-0.14127 -1.271785,-0.25719 -0.327714,-0.0831 -0.665295,-0.15605 -0.873319,-0.25866 -0.515658,-0.22079 -0.960674,-0.53809 -1.33438,-0.94603 -0.352778,-0.38509 -0.606397,-0.81238 -0.782871,-1.21438 -0.676338,-1.5857 -0.717043,-2.9131 -1.026086,-2.91112 -0.139661,10e-4 -0.823983,1.2609 -0.272998,3.11541 0.142325,0.49166 0.421298,1.01578 0.883521,1.50324 0.486686,0.51327 1.116058,0.92153 1.839014,1.2045 0.449691,0.1645 0.885667,0.23562 1.224631,0.28227 0.543285,0.0841 1.041839,0.12806 1.50866,0.13143 0.221092,0.003 0.441043,-0.006 0.660435,-0.0369 0.153248,-0.002 0.370772,-0.07 0.56199,-0.19825 0.177329,-0.21774 0.116166,-0.3727 0.0064,-0.45251 -0.124838,-0.11021 -0.249345,-0.17577 -0.358482,-0.21381 0.499454,0.0392 1.509539,0.0765 2.825944,-0.11459 0.479434,-0.0663 1.04692,-0.19435 1.575944,-0.458 0.502344,-0.26473 0.879457,-0.64269 1.046772,-1.08351 0.143711,-0.37133 0.250294,-0.7536 0.330077,-1.15014 0.144525,-0.71833 0.192657,-1.455 0.229431,-2.05423 0.123701,-1.79999 0.363604,-3.08686 0.204055,-3.12566 -0.362267,-0.0881 -1.164232,1.15505 -1.498732,3.05573 -0.11476,0.62583 -0.196241,1.30871 -0.333112,2.00134 -0.0737,0.37294 -0.159857,0.72205 -0.272171,1.05952 -0.08526,0.25835 -0.272018,0.48878 -0.526142,0.63996 -0.273544,0.1773 -0.684779,0.29892 -1.067726,0.3976 -1.230225,0.30632 -2.29521,0.52671 -2.695235,0.67803 0.308687,-0.43492 0.538275,-2.03698 0.538275,-3.9505 0,-2.24723 -0.31626,-4.07114 -0.705935,-4.07114 z m 0.150287,8.54079 c 0.0023,0.01 0.0059,0.0193 0.0074,0.0293 -0.02529,0.0306 -0.02081,0.0247 -0.0074,-0.0293 z"
       id="path6661-1"
       inkscape:connector-curvature="0" />
    <path
       style="fill:#71c837;stroke:none;stroke-width:0.11503305px;stroke-linecap:butt;stroke-linejoin:miter;stroke-opacity:1"
       d="m 114.11255,283.60079 c -0.38968,0 -0.70594,1.82392 -0.70594,4.07114 0,1.29138 0.10469,2.44063 0.26748,3.18662 0.0806,0.55499 0.25145,0.88831 0.43846,0.88433 0.17214,0 0.32968,-0.35673 0.45224,-0.94785 0.2136,-0.7272 0.4755,-1.7956 0.86228,-2.97776 0.70698,-2.16077 1.39061,-3.93714 0.96735,-4.0272 -0.22684,-0.0483 -0.97393,0.79976 -1.64571,2.1271 -0.1138,-1.36835 -0.35559,-2.31638 -0.63616,-2.31638 z"
       id="path6679-8"
       inkscape:connector-curvature="0" />
    <path
       style="fill:#71c837;stroke:none;stroke-width:0.10923567px;stroke-linecap:butt;stroke-linejoin:miter;stroke-opacity:1"
       d="m 240.89618,284.2838 c 0.012,-2.4e-4 0.0228,0.001 0.0321,0.005 0.16503,0.0618 -0.0596,0.58222 -0.31231,1.39506 -0.2803,0.90159 -0.49573,1.85421 -0.62514,3.24226 -0.20391,2.18706 -0.16638,4.06331 -0.41427,4.64392 0.29136,-0.17199 0.89089,-0.43797 1.65111,-0.84114 1.17102,-0.62102 2.52905,-1.47634 3.86917,-2.7363 0.28415,-0.26714 0.54913,-0.53533 0.79572,-0.80196 1.04427,-1.15529 2.0419,-2.07654 2.59578,-2.7839 0.54831,-0.70026 0.76676,-1.19249 0.928,-1.17118 0.14455,0.0191 0.20574,0.56433 -0.18625,1.41538 -0.46016,0.99906 -1.17787,1.78215 -2.28991,3.04603 -0.25272,0.29308 -0.5319,0.58591 -0.83825,0.87445 -1.43462,1.35121 -3.05292,2.22369 -4.41249,2.7233 -1.33214,0.48954 -2.2484,0.57025 -2.30459,0.46167 -0.33781,0.18091 -2.3681,-1.63852 -4.15936,-4.22033 -1.77947,-2.56481 -2.78107,-4.77547 -2.52814,-4.86852 0.37432,-0.1377 1.90791,1.90587 3.66303,4.44255 1.07455,1.55307 2.06429,2.91749 2.60896,3.76086 -0.0375,-0.15807 -0.0743,-0.33167 -0.10867,-0.52537 -0.15236,-0.85751 -0.28026,-2.14528 -0.14223,-3.48719 0.14449,-1.40493 0.54429,-2.52983 1.0568,-3.3823 0.46258,-0.76942 0.94067,-1.18851 1.12097,-1.19206 z m 6.09967,0.5466 c 0.0457,-1.8e-4 0.0811,0.008 0.10543,0.0263 0.23758,0.17486 -0.88483,1.33796 -2.58434,2.55874 -1.70844,1.22719 -3.35101,2.00151 -3.58868,1.79631 -0.21771,-0.18794 1.02962,-1.26677 2.69947,-2.46702 1.52296,-1.09467 2.92561,-1.91264 3.36812,-1.91439 z m 4.99262,1.73041 c 0.20421,3.6e-4 0.46178,0.80219 0.0584,2.03997 -0.2462,0.76998 -0.72055,1.68711 -1.55314,2.55928 -0.28402,0.29754 -0.59111,0.56996 -0.91581,0.81661 -1.09497,0.83936 -2.34569,1.22922 -3.29775,1.34472 -0.94943,0.11519 -1.49331,-0.0352 -1.49371,-0.13326 -3.8e-4,-0.12131 0.5261,-0.18773 1.27364,-0.42999 0.77388,-0.25081 1.70977,-0.67334 2.60895,-1.40623 0.27207,-0.22382 0.53361,-0.46641 0.78404,-0.72948 0.72991,-0.76676 1.23526,-1.57103 1.60137,-2.24919 0.56501,-1.05888 0.71946,-1.81282 0.93398,-1.81243 z"
       id="path6691-7"
       inkscape:connector-curvature="0" />
    <path
       style="fill:#71c837;stroke:none;stroke-width:0.11503305px;stroke-linecap:butt;stroke-linejoin:miter;stroke-opacity:1"
       d="m 227.32781,283.68156 c -0.38968,0 -0.70593,2.03582 -0.70593,4.54434 0,2.00927 0.20321,3.71235 0.48422,4.31185 -0.13003,-0.0745 -0.3124,-0.15875 -0.55343,-0.24712 -0.56903,-0.20864 -1.4518,-0.40016 -2.35441,-0.65992 -0.45019,-0.13315 -0.93377,-0.28917 -1.29384,-0.49955 -0.29386,-0.16646 -0.5437,-0.38866 -0.69381,-0.64069 -0.016,-0.0268 -0.0306,-0.054 -0.0441,-0.0811 -0.45007,-0.89628 -1.37893,-2.45066 -1.64737,-2.90727 -0.42704,-0.72641 -0.70155,-1.1907 -0.89289,-1.16972 -0.18678,0.0204 -0.25385,0.53042 -0.0576,1.34015 0.21783,0.8989 0.64209,1.79611 1.25827,3.03229 0.0224,0.0446 0.047,0.0886 0.0734,0.13235 0.24851,0.41167 0.65498,0.75469 1.14329,1.00534 0.57646,0.28889 1.19497,0.45491 1.73119,0.56014 0.87465,0.17778 2.14844,0.30113 2.5364,0.34287 0.59042,0.0635 0.95522,0.10398 1.01671,0.0249 0.38967,0 0.70594,-2.03599 0.70594,-4.54452 0,-2.50852 -0.31627,-4.54433 -0.70594,-4.54433 z"
       id="path6721-9"
       inkscape:connector-curvature="0" />
    <path
       style="fill:#71c837;stroke:none;stroke-width:0.11503305px;stroke-linecap:butt;stroke-linejoin:miter;stroke-opacity:1"
       d="m 180.74145,285.4279 c -0.009,3.9e-4 -0.0175,0.002 -0.0254,0.005 -0.10249,0.0335 0.35663,1.14644 1.07021,2.91313 0.33775,0.84163 0.89045,2.23346 1.42152,3.39713 0.20623,0.4523 0.43651,0.93526 0.70703,1.41721 0.17154,0.31267 0.37605,0.66415 0.69353,1.00808 0.0774,0.0967 0.21918,0.22144 0.45251,0.35037 0.17677,0.12382 0.51114,0.16533 0.9646,0.0891 0.17522,-0.0735 0.308,-0.14673 0.40177,-0.21454 0.10851,-0.0785 0.16433,-0.14937 0.17345,-0.2052 0.12364,-0.19323 0.18752,-0.37213 0.22695,-0.52463 0.35601,-1.37677 2.00171,-2.74197 3.06833,-3.76507 0.77475,-0.72783 1.35017,-1.33525 1.77642,-1.98376 0.92388,-1.40422 0.56084,-2.29095 0.45335,-2.29258 -0.17291,-0.003 -0.25695,0.86384 -1.26517,2.0222 -0.50147,0.57651 -1.08285,1.07827 -1.92175,1.77728 -1.12789,0.921 -2.82286,2.25158 -3.43039,3.87911 -0.10089,-0.14932 -0.19532,-0.30811 -0.29314,-0.47026 -0.26622,-0.45052 -0.50767,-0.91755 -0.7335,-1.35882 -0.71662,-1.40119 -1.11324,-2.24065 -1.71823,-3.33123 -0.93834,-1.6965 -1.74356,-2.72433 -2.02212,-2.71214 z m 5.1445,8.32295 c 0.0116,0.005 0.0212,0.0121 0.0267,0.0207 -0.002,0.005 -0.009,-0.003 -0.0267,-0.0207 z"
       id="path6751-2"
       inkscape:connector-curvature="0" />
    <path
       style="fill:#71c837;stroke:none;stroke-width:0.11503305px;stroke-linecap:butt;stroke-linejoin:miter;stroke-opacity:1"
       d="m 200.96813,282.5922 c -0.17972,1.1e-4 -0.49207,0.89487 -0.38303,2.3323 0.10684,1.20151 0.72074,2.39817 1.77173,3.81284 0.27019,0.36369 0.55321,0.72201 0.81596,1.0533 0.67523,0.86504 1.1581,1.49275 1.57043,2.19776 0.79114,1.35338 0.84201,2.33521 1.07406,2.34346 0.16915,0.0593 0.81135,-0.51655 1.79655,-1.45949 0.827,-0.79153 2.49596,-2.41374 3.74339,-3.78576 0.0647,-0.0713 0.12948,-0.14326 0.19413,-0.21564 2.30568,-2.58114 3.34005,-4.55072 3.57269,-5.73638 v -1.8e-4 c -0.006,-0.10741 -0.0158,-0.19922 -0.0293,-0.27495 -0.0146,-0.0737 -0.0324,-0.1329 -0.0532,-0.17665 -0.0124,-0.026 -0.0259,-0.0467 -0.0405,-0.0615 -0.0492,-0.0177 -0.0556,-0.0277 -0.056,-0.0289 0,0 -2.1e-4,0 -2.1e-4,0 -8e-4,0.001 -0.0104,0.01 -0.0643,0.02 -0.0193,0.0123 -0.0393,0.0304 -0.0601,0.054 -0.035,0.0396 -0.0718,0.0948 -0.11056,0.16457 -0.0372,0.0653 -0.0757,0.14287 -0.11472,0.23119 -1.34511,1.79718 -1.389,2.13925 -4.25905,5.33276 0.007,-0.008 -0.19597,0.21795 -0.18861,0.20978 -1.47776,1.64355 -2.49713,2.75787 -3.37802,3.93714 -0.25711,0.34422 -0.46143,0.64469 -0.62045,0.90154 0.0209,-0.43221 -0.052,-1.00576 -0.32621,-1.68703 -0.3068,-0.76365 -0.77899,-1.51311 -1.41076,-2.37806 -0.25488,-0.35477 -0.50712,-0.69025 -0.78012,-1.05806 -1.0482,-1.41226 -1.67491,-2.38135 -1.9551,-3.47621 -0.35802,-1.35225 -0.44565,-2.25192 -0.70869,-2.25176 z"
       id="path6757-02"
       inkscape:connector-curvature="0" />
    <path
       style="fill:#71c837;stroke:none;stroke-width:0.11503305px;stroke-linecap:butt;stroke-linejoin:miter;stroke-opacity:1"
       d="m 11.850556,267.35246 c -0.177754,-0.039 -0.702365,0.59931 -1.342107,1.68666 -0.6242508,1.061 -1.4138663,2.65479 -1.8340532,4.41071 l -0.00242,0.01 c -0.2851114,1.18679 -0.3349351,2.25841 -0.229979,3.19467 -0.5719862,-0.65958 -1.2874421,-1.34969 -2.1715737,-2.17121 l -0.00878,-0.008 c -0.9637046,-0.91069 -1.6795553,-1.60002 -2.286567,-2.38135 -1.1482176,-1.47631 -1.2762932,-2.6577 -1.5376161,-2.65814 -0.2111044,-3.6e-4 -0.6617333,1.22764 0.4254955,2.99642 0.5312733,0.86448 1.2836399,1.68108 2.2446459,2.58309 l 0.00886,0.009 c 1.7728872,1.6908 2.3981126,2.11149 3.4703826,3.36015 0.2956396,0.34428 0.5098051,0.63057 0.6902178,0.8719 0.2206664,0.35663 0.4261802,0.56444 0.5379997,0.59181 0.0145,0.003 0.027711,0.005 0.038908,0.002 0.1257717,-0.0174 0.1747495,-0.35972 -0.00403,-0.91747 -0.0406,-0.2705 -0.084841,-0.57485 -0.1210592,-0.94584 -0.1171522,-1.20017 -0.080153,-2.59525 0.3375287,-4.38087 l 0.0024,-0.01 c 0.382841,-1.61957 1.032233,-3.31755 1.393953,-4.36091 0.390695,-1.12697 0.579188,-1.8405 0.387433,-1.88254 z"
       id="path6769-3"
       inkscape:connector-curvature="0" />
    <path
       style="fill:#71c837;stroke:none;stroke-width:0.11503305px;stroke-linecap:butt;stroke-linejoin:miter;stroke-opacity:1"
       d="m 29.311884,270.77456 c -0.381206,0.0696 -2.886796,2.45149 -4.073736,6.00072 -0.324487,0.9703 -0.48903,1.86797 -0.539925,2.68046 -0.418963,-0.67996 -0.950413,-1.40812 -1.600216,-2.23857 l -0.0024,-0.003 c -0.840245,-1.08955 -1.449021,-1.85896 -2.00778,-2.76431 -1.029816,-1.67114 -1.183106,-2.91723 -1.444131,-2.91752 -0.245211,-2.7e-4 -0.604377,1.29788 0.293682,3.19211 0.448454,0.94825 1.08594,1.86363 1.902172,2.91752 l 0.0024,0.003 c 1.402919,1.83787 2.079885,2.60908 2.825115,3.93147 0.130371,0.23133 0.238839,0.44287 0.334217,0.63593 0.222737,0.6931 0.500783,1.07662 0.632871,1.05989 0.143792,-0.007 0.274687,-0.46106 0.145322,-1.2186 6.37e-4,-0.20438 0.0032,-0.4265 0.01104,-0.67199 0.04028,-1.20872 0.221319,-2.62361 0.82643,-4.40155 1.161735,-3.41344 3.073001,-6.08842 2.725282,-6.20519 -0.0081,-0.003 -0.0178,-0.003 -0.03005,-3.7e-4 z"
       id="path6781-7"
       inkscape:connector-curvature="0" />
    <path
       style="fill:#71c837;stroke:none;stroke-width:0.11503305px;stroke-linecap:butt;stroke-linejoin:miter;stroke-opacity:1"
       d="m 35.636523,274.06315 c -0.193278,10e-6 -0.413904,0.69569 -0.48588,1.81883 -0.06501,0.99751 0.04898,2.37047 0.717792,3.79784 0.147183,0.31411 0.314506,0.61667 0.500775,0.90722 0.831907,1.30061 2.031874,2.20454 3.083497,2.74491 1.038267,0.5335 1.808243,0.66549 1.888646,0.57753 0.153619,0.0753 0.732259,-0.26445 1.616754,-0.82155 0.727225,-0.45803 2.268595,-1.44231 3.403102,-2.29074 0.06291,-0.0471 0.125981,-0.0947 0.188895,-0.14279 2.117271,-1.61833 3.069029,-3.00627 3.257779,-3.87948 4.8e-5,-0.0133 4.27e-4,-0.0289 4.27e-4,-0.0415 -2.09e-4,-0.0278 -8.05e-4,-0.0541 -0.0024,-0.0789 -0.0024,-0.0276 -0.0064,-0.0534 -0.0099,-0.0772 -0.0024,-0.0118 -0.0032,-0.0259 -0.0056,-0.0379 -0.04543,-0.12235 -0.09979,-0.19061 -0.162151,-0.20264 -0.01506,-10e-4 -0.01547,-10e-4 -0.01539,-10e-4 8e-6,0 -2.01e-4,-2.7e-4 -0.01539,-1.8e-4 -0.06412,0.006 -0.131853,0.0681 -0.200471,0.17445 -0.0081,0.009 -0.01675,0.0219 -0.02481,0.032 -0.01523,0.0171 -0.03093,0.035 -0.04656,0.0536 -0.01305,0.0168 -0.02586,0.0343 -0.03891,0.0523 -0.0056,0.008 -0.01273,0.0188 -0.01869,0.0271 v 6.9e-4 c -1.091079,1.0959 -1.333133,1.50045 -3.785846,3.36619 0.0081,-0.005 -0.186906,0.142 -0.179237,0.13619 -1.344322,1.01897 -2.276618,1.70958 -3.089023,2.48771 -0.562319,0.53861 -0.871049,0.94923 -0.906405,1.1386 -0.142995,-0.1587 -0.629141,-0.45151 -1.230699,-0.91362 -0.804615,-0.6181 -1.710722,-1.47043 -2.420579,-2.65521 -0.159896,-0.26742 -0.30716,-0.54479 -0.442316,-0.83327 -0.607374,-1.29633 -0.857572,-2.5961 -1.020569,-3.54338 -0.185455,-1.09663 -0.337021,-1.79542 -0.557027,-1.79541 z"
       id="path6793-5"
       inkscape:connector-curvature="0" />
    <path
       style="fill:#ffff00;stroke:none;stroke-width:0.26458332px;stroke-linecap:butt;stroke-linejoin:miter;stroke-opacity:1"
       d="m 209.53931,113.6531 c 0.35113,0.0915 -1.14471,4.32384 0.5394,10.30153 0,0 0,0 0,0 0.63845,2.29801 1.91805,4.81756 4.04388,6.90368 1.74047,1.71852 4.00239,3.11757 6.63509,4.05378 2.42956,0.86039 5.12063,1.29983 7.90205,1.22822 0.15124,-0.004 0.30266,-0.01 0.45423,-0.017 2.57142,-0.12182 5.02207,-0.67376 7.20201,-1.63654 2.44589,-1.08208 4.49236,-2.65274 5.94037,-4.51946 1.83572,-2.33456 2.69771,-5.14142 2.98704,-7.57887 0.81939,-6.81444 -1.3177,-11.27395 -0.95903,-11.40806 -0.20399,0.0763 3.25443,3.71618 2.89196,11.5651 -0.13164,2.74618 -0.95031,5.97882 -3.01726,8.84869 -1.64611,2.25933 -3.9735,4.16589 -6.7826,5.44889 -2.48634,1.13736 -5.25562,1.79272 -8.13971,1.92425 -0.16995,0.008 -0.33967,0.0136 -0.50909,0.0177 -3.11579,0.0798 -6.12765,-0.44589 -8.84846,-1.46276 -2.95826,-1.10161 -5.48767,-2.78605 -7.42427,-4.83731 -2.37085,-2.52393 -3.65827,-5.46907 -4.18774,-8.10118 0,0 0,0 0,0 -1.40434,-7.10886 1.47532,-10.67774 1.27213,-10.7307 z"
       id="path7036"
       inkscape:connector-curvature="0"
       inkscape:path-effect="#path-effect7038;#path-effect7040"
       inkscape:original-d="m 209.53931,113.6531 c 0,2.31633 0,4.63267 0,6.949 0,3.2286 -0.56346,7.26682 1.60361,10.15625 4.69293,6.25724 26.77043,9.75726 31.00327,2.13815 3.44521,-6.20138 2.13816,-15.04642 2.13816,-21.9161" />
    <path
       style="fill:#ffff00;stroke:none;stroke-width:0.26458332px;stroke-linecap:butt;stroke-linejoin:miter;stroke-opacity:1"
       d="m 208.26718,124.38376 c 0.15307,0.30676 -1.38671,1.54366 -4.28164,2.77964 -3.01655,1.28791 -6.94305,2.33886 -11.87561,2.83713 -4.69631,0.47441 -9.254,0.33728 -12.2848,0.10617 -3.12534,-0.23831 -5.03144,-0.59738 -5.03087,-0.95197 6e-4,-0.37205 1.91313,-0.68499 5.02718,-0.93599 3.11012,-0.25069 7.41321,-0.41119 12.02822,-0.85549 4.90741,-0.47246 8.36189,-1.13657 11.53954,-1.94867 2.89037,-0.73867 4.7047,-1.37806 4.87798,-1.03082 z"
       id="path7048"
       inkscape:connector-curvature="0"
       inkscape:path-effect="#path-effect7050;#path-effect7052"
       inkscape:original-d="m 208.26718,124.38376 c -10.51007,5.19423 -22.09004,4.77097 -33.47291,4.77097" />
    <path
       style="fill:#ffff00;stroke:none;stroke-width:0.26458332px;stroke-linecap:butt;stroke-linejoin:miter;stroke-opacity:1"
       d="m 219.16101,137.17282 c 0.29064,0.25319 -0.41245,1.43711 -1.28045,3.34243 -0.92978,2.04097 -1.836,4.46784 -2.52338,7.78183 -0.36266,1.74844 -0.59898,3.43354 -0.76833,4.94878 -0.4315,4.03791 -0.70406,6.91248 -1.30777,6.91214 -0.45427,-2.5e-4 -1.09586,-2.83873 -1.08305,-7.04064 -5.3e-4,-1.62881 0.15245,-3.45568 0.55294,-5.36415 0.74339,-3.5426 2.11414,-6.29998 3.53838,-8.1936 1.38921,-1.84705 2.61491,-2.61046 2.87166,-2.38679 z"
       id="path7054"
       inkscape:connector-curvature="0"
       inkscape:path-effect="#path-effect7056;#path-effect7058"
       inkscape:original-d="m 219.16101,137.17282 c -5.98809,7.21305 -5.87993,14.32483 -5.87993,22.98518" />
    <path
       style="fill:#ffff00;stroke:none;stroke-width:0.26458332px;stroke-linecap:butt;stroke-linejoin:miter;stroke-opacity:1"
       d="m 244.28435,132.36196 c 0.63785,-0.35554 4.10633,5.18729 9.52093,10.79322 1.98558,2.05575 3.83929,3.71009 5.59226,5.13953 0.96114,0.90855 3.13346,1.41437 4.03603,1.73232 1.16924,0.41189 1.76475,0.81205 1.6978,1.0438 -0.0605,0.20951 -0.75483,0.26053 -1.9297,0.24346 -0.97876,-0.0142 -3.17372,-0.0505 -5.10945,-1.21226 -1.98523,-1.27242 -4.10527,-2.96059 -6.18614,-5.1105 -5.84368,-6.03753 -8.16702,-12.32562 -7.62173,-12.62957 z"
       id="path7060"
       inkscape:connector-curvature="0"
       inkscape:path-effect="#path-effect7062;#path-effect7064"
       inkscape:original-d="m 244.28435,132.36196 c 3.31779,6.17671 9.24194,14.62014 16.03617,17.63979 1.48244,0.65887 3.93505,0.63118 4.81084,1.06908" />
    <path
       style="fill:#ffff00;stroke:none;stroke-width:0.26458332px;stroke-linecap:butt;stroke-linejoin:miter;stroke-opacity:1"
       d="m 252.83697,117.39487 c 0.0194,-0.50914 6.62946,-1.55815 14.69617,0.88819 4.73428,1.43573 8.12639,3.60584 10.22882,5.57765 1.4471,1.36435 2.00381,2.41949 1.80197,2.62132 -0.22536,0.22536 -1.17817,-0.40954 -2.77259,-1.32456 -2.47835,-1.43567 -5.4485,-2.98587 -10.01811,-4.34576 -7.37447,-2.1946 -13.96409,-2.68712 -13.93626,-3.41684 z"
       id="path7066"
       inkscape:connector-curvature="0"
       inkscape:path-effect="#path-effect7068;#path-effect7070"
       inkscape:original-d="m 252.83697,117.39487 c 8.74699,0.2192 20.28139,2.64161 26.72696,9.08716" />
    <g
       id="g7118"
       transform="matrix(0.86453748,0,0,0.29055873,29.465554,198.67209)">
      <path
         inkscape:original-d="m 17.10525,206.66289 c 13.970447,1.52437 23.80597,-30.12697 32.072342,-32.60688 2.389314,-0.7168 4.989031,0 7.483549,0 1.603616,0 3.527957,-0.96217 4.81085,0 8.383661,6.28774 5.422254,25.47002 22.450639,29.39965 12.610289,2.91006 26.34302,-1.41598 39.02135,0.53453 7.74201,1.19108 13.67573,6.61665 20.31249,10.15625 5.76296,3.07358 8.6717,2.70764 12.02829,7.46307"
         inkscape:path-effect="#path-effect7080;#path-effect7082"
         inkscape:connector-curvature="0"
         id="path7078"
         d="m 17.10525,206.66289 c -0.01236,-0.20085 3.125612,-0.37275 7.546242,-3.28127 2.375795,-1.57135 4.708685,-3.56725 7.526813,-6.4496 4.909505,-5.02658 8.264271,-9.52148 14.137136,-16.90101 1.842072,-2.31779 3.886482,-4.87889 6.119099,-7.25457 1.4306,-1.55595 3.120556,-3.30514 5.383673,-4.40018 0.737394,-0.37489 1.669022,-0.61795 2.719434,-0.51476 1.019458,0.16703 1.872318,0.68654 2.455872,1.39346 0.780327,0.94359 1.233265,1.99836 1.525549,2.99234 0.471939,1.51337 0.727281,3.04758 0.904227,4.56862 0.459224,3.76648 1.342985,7.62947 3.183349,11.00325 1.277526,2.35832 3.067558,4.49143 5.267042,6.10716 0.16092,0.11821 0.323752,0.23344 0.488433,0.3456 2.353324,1.61932 5.102264,2.65697 7.888227,3.34752 3.123488,0.76955 6.365634,1.10796 9.533158,1.3077 7.300558,0.45452 14.407356,0.19474 21.052786,0.79919 3.54248,0.3205 6.87857,0.86622 10.05209,1.84094 3.31788,1.01718 6.2736,2.51023 8.72999,4.45806 0,0 1e-5,0 1e-5,0 3.75672,3.00963 9.03291,5.53137 12.20325,7.20124 8.08878,4.23104 11.84444,8.00815 11.46314,8.38294 -0.1885,0.18527 -4.01563,-3.29517 -12.10109,-7.09807 -3.25731,-1.52061 -8.60113,-3.83422 -12.75545,-6.94915 0,0 0,0 0,0 -2.28143,-1.72087 -5.0385,-3.0174 -8.15847,-3.91357 -2.99849,-0.85961 -6.18155,-1.3139 -9.62974,-1.57887 -6.46546,-0.49358 -13.516529,-0.15287 -21.007693,-0.56629 -3.248562,-0.17674 -6.64361,-0.52044 -10.003841,-1.32866 -3.011226,-0.72017 -6.04914,-1.87865 -8.758873,-3.71837 -0.190123,-0.13024 -0.377978,-0.2638 -0.563499,-0.4006 -2.536171,-1.87012 -4.574533,-4.29862 -6.017399,-6.9874 -2.031552,-3.80975 -2.987825,-7.98521 -3.42148,-11.95772 -0.165701,-1.4488 -0.375796,-2.82762 -0.771841,-4.11144 -0.280419,-0.85162 -0.558275,-1.6104 -1.012873,-2.11594 -0.276843,-0.30272 -0.600143,-0.54476 -0.880227,-0.55432 -0.344674,-0.0863 -0.824744,0.0784 -1.349663,0.28661 -1.73272,0.75081 -3.214555,2.30981 -4.694803,3.80484 -2.176541,2.24581 -4.23102,4.7351 -6.115239,7.01136 -5.889992,7.12455 -9.651333,11.83069 -14.729437,16.65159 -2.965488,2.81808 -5.527263,4.79151 -8.070582,6.25607 -4.952686,2.86767 -8.129354,2.45274 -8.13732,2.3233 z"
         style="fill:#aa4400;stroke:none;stroke-width:0.26458332px;stroke-linecap:butt;stroke-linejoin:miter;stroke-opacity:1" />
      <path
         inkscape:original-d="m 115.46044,199.17934 c 12.53684,-2.67431 22.07096,-11.20293 31.00326,-19.77794 3.37232,-3.23742 8.47032,-10.12881 13.36348,-11.75986 12.46005,-4.15335 22.00069,9.32282 33.14142,11.75986 10.9981,2.40583 23.07612,-0.44791 34.2105,0.53454 15.62852,1.37898 30.07897,10.06058 42.76312,18.70886 3.13113,2.13486 10.15624,7.54749 10.15624,12.2944"
         inkscape:path-effect="#path-effect7086;#path-effect7088"
         inkscape:connector-curvature="0"
         id="path7084"
         d="m 115.46044,199.17934 c -0.0626,-0.29337 6.73997,-1.55938 16.69991,-6.96274 4.07551,-2.21116 8.63848,-5.17957 14.07293,-8.05669 4.92027,-2.60517 10.71319,-4.98217 17.14382,-6.33503 7.99712,-1.67174 16.48332,-1.87714 25.5922,-1.10515 3.94099,0.33011 7.87929,0.58502 11.99017,0.84401 12.73947,0.8026 23.51559,1.48623 34.54365,3.71982 0,0 0,1e-5 0,1e-5 l 0,0 c 8.42842,1.7079 15.7024,4.15954 22.02629,7.36155 l 0,0 c 9.21299,4.677 15.42389,10.56382 19.08695,14.80832 v 0 c 0.47844,0.64834 0.92267,1.25401 1.33168,1.81567 0.31911,0.43875 0.61693,0.85087 0.89286,1.23554 l 0,0 c 0.1012,0.14109 0.19945,0.27849 0.29473,0.41216 l 0,0 c 0,0 0,0 0,0 0.0393,0.0605 0.078,0.12003 0.11613,0.17873 l 0,0 c 0,0 0,0 1e-5,0 0.0128,0.0191 0.0267,0.0399 0.0395,0.0591 0,0 0,10e-6 0,10e-6 0.002,0.005 0.0179,0.0554 0.0192,0.0596 0.0165,0.0515 0.0328,0.10237 0.0489,0.1527 l 0,0 c 0.0376,0.14354 0.0739,0.28297 0.1089,0.41827 l 0,0 c 0.1217,0.47089 0.22718,0.89159 0.31593,1.26038 l 0,0 c 0.12875,0.53503 0.22228,0.96081 0.279,1.27207 l 0,0 c 0.0338,0.18538 0.0545,0.33013 0.0619,0.43316 l 0,0 c 0.004,0.0553 0.004,0.0985 2.1e-4,0.12963 l 0,0 0,0 0,0 c -0.0285,0.0388 -0.0272,0.0565 -0.0268,0.0586 0,0 0,0 0,0 0,0 0,0 0,0 0,0 0,0 0,0 0,0 0,0 0,0 5e-5,2.6e-4 3e-5,2.2e-4 3e-5,2.2e-4 0,0 1e-5,4e-5 -10e-5,-2e-4 0,0 0,0 0,0 0,0 0,0 0,0 0,0 0,0 0,0 0,0 0,0 0,0 -8.9e-4,-0.002 -0.01,-0.0171 -0.0557,-0.0325 l 0,0 0,0 0,0 c -0.021,-0.0232 -0.0458,-0.0587 -0.0744,-0.10615 l 0,0 c -0.0533,-0.0885 -0.11959,-0.21883 -0.19859,-0.38989 l 0,0 c -0.13267,-0.28723 -0.30111,-0.6893 -0.50359,-1.201 l 0,0 c -0.13957,-0.35271 -0.29531,-0.75751 -0.46666,-1.21269 l 0,0 c -0.0492,-0.13078 -0.0998,-0.26572 -0.15155,-0.40477 l 0,0 c -0.009,-0.0276 -0.0172,-0.0554 -0.0257,-0.0831 0.003,0.01 -0.0127,-0.0415 -0.01,-0.0318 -1.8e-4,-3.6e-4 -1.8e-4,-3.6e-4 -1.8e-4,-3.6e-4 -0.0107,-0.0102 -0.0181,-0.0174 -0.0287,-0.0276 0,0 0,-1e-5 0,-1e-5 l 0,0 c -0.0209,-0.0163 -0.0418,-0.0325 -0.0627,-0.0484 0,0 0,0 0,0 l 0,0 c -0.10754,-0.12402 -0.21801,-0.25181 -0.33137,-0.38333 l 0,0 c -0.30907,-0.35858 -0.63966,-0.7449 -0.99115,-1.15817 v 0 c -0.44284,-0.52065 -0.9185,-1.08373 -1.42555,-1.68751 -3.86223,-3.93959 -10.12113,-9.41728 -19.13911,-13.70493 l 0,0 c -6.21803,-2.96508 -13.31917,-5.20658 -21.60205,-6.78698 l 0,0 c 0,0 -1e-5,-10e-6 -1e-5,-10e-6 -10.88808,-2.07863 -21.43931,-2.66491 -34.23879,-3.47202 -4.1099,-0.25917 -8.07951,-0.52551 -12.04812,-0.87538 -8.94503,-0.78012 -17.16453,-0.66826 -24.88895,0.85082 -6.17544,1.20571 -11.82295,3.4072 -16.66957,5.82837 -5.37934,2.68795 -10.06412,5.53674 -14.29147,7.62367 -10.48675,5.17817 -17.40813,5.66674 -17.43427,5.54413 z"
         style="fill:#aa4400;stroke:none;stroke-width:0.26458332px;stroke-linecap:butt;stroke-linejoin:miter;stroke-opacity:1" />
      <path
         inkscape:original-d="m 267.63632,195.8065 c 1.30318,-1.90478 1.76035,-4.87318 3.90951,-5.71432 8.38427,-3.28146 20.3754,3.03203 28.86511,0 5.08424,-1.81579 6.86147,-7.04493 10.69079,-10.15624 4.67074,-3.79499 31.84535,-3.43422 35.8141,0.53454"
         inkscape:path-effect="#path-effect7104;#path-effect7106"
         inkscape:connector-curvature="0"
         id="path7102"
         d="m 267.63632,195.8065 c 0.067,0.0256 -0.22988,-1.87849 2.04836,-4.21169 0.84614,-0.85393 2.04627,-1.63923 3.57946,-2.08453 2.67389,-0.761 5.46732,-0.57945 8.8844,-0.007 2.52598,0.4002 6.19196,1.20976 9.04443,1.41059 1.2842,0.088 2.59648,0.0975 3.8282,-0.14203 1.08215,-0.21165 2.14336,-0.60892 2.9895,-1.25715 2.24485,-1.68539 4.74901,-3.60979 7.25288,-5.34317 2.56009,-1.77231 5.11263,-3.3444 7.80227,-4.6356 6.81253,-3.24688 13.72114,-3.8091 19.23607,-3.15944 5.31959,0.59067 7.90318,0.70428 11.09317,1.90218 2.5312,0.95051 3.60725,2.05675 3.52078,2.19185 -0.10865,0.16975 -1.38486,-0.56709 -3.8425,-1.13043 -3.65445,-0.83766 -4.98576,-0.51532 -10.95653,-0.95824 -5.23002,-0.34213 -11.668,0.39188 -17.92055,3.48397 -2.51664,1.23485 -4.93482,2.75099 -7.42427,4.48072 -2.38293,1.65571 -4.978,3.61827 -7.22302,5.25042 -1.25921,0.90712 -2.6844,1.43316 -4.08518,1.66317 -1.55598,0.25635 -3.07816,0.22228 -4.48034,0.0781 -3.18457,-0.32215 -6.74374,-1.25368 -9.21289,-1.76806 -3.36767,-0.66863 -5.73747,-1.05176 -8.12441,-0.54122 -1.30955,0.26964 -2.37285,0.80784 -3.16842,1.44117 -2.10747,1.6502 -2.64316,3.41207 -2.84141,3.33644 z"
         style="fill:#aa4400;stroke:none;stroke-width:0.26458332px;stroke-linecap:butt;stroke-linejoin:miter;stroke-opacity:1" />
      <path
         inkscape:original-d="m 36.348655,183.14317 c -2.316334,0 -4.705651,0.57686 -6.949006,0 -20.0313405,-5.15092 -42.234575,-24.68038 -62.54107,-33.14142 -3.782673,-1.57611 -9.290317,-0.53454 -13.363477,-0.53454"
         inkscape:path-effect="#path-effect7110;#path-effect7112"
         inkscape:connector-curvature="0"
         id="path7108"
         d="m 36.348655,183.14317 c 0.01059,0.18544 -2.309689,0.76437 -6.421611,0.35849 -4.306812,-0.42511 -9.675475,-1.86636 -16.15999,-5.19517 -6.007089,-3.06465 -12.398362,-7.47621 -19.4614112,-11.43582 -0.2282017,-0.12794 -0.4562696,-0.25472 -0.6842941,-0.38033 -7.3308067,-4.04392 -13.4702327,-8.70474 -19.1969737,-11.80362 -3.705213,-2.00273 -6.908028,-3.31906 -9.993631,-4.12485 -6.557261,-1.71741 -10.873114,-0.76855 -10.935648,-1.09466 -0.01666,-0.0869 4.041496,-2.0008 11.318363,-0.59869 3.291008,0.63595 6.774934,1.86071 10.65899,3.80061 6.026327,3.00644 12.329555,7.60533 19.4247797,11.50377 0.2343396,0.12895 0.468454,0.25906 0.7024204,0.39031 7.2415149,4.0623 13.4949654,8.5399 19.2453329,11.71079 6.256708,3.42945 11.126396,5.07431 15.277865,5.90228 3.874403,0.77272 6.211765,0.72098 6.225808,0.96689 z"
         style="fill:#aa4400;stroke:none;stroke-width:0.26458332px;stroke-linecap:butt;stroke-linejoin:miter;stroke-opacity:1" />
    </g>
    <path
       style="fill:#71c837;stroke:none;stroke-width:0.11503305px;stroke-linecap:butt;stroke-linejoin:miter;stroke-opacity:1"
       d="m 268.93614,269.26778 c -0.17775,-0.039 -0.70236,0.59932 -1.3421,1.68667 -0.62425,1.061 -1.41387,2.65479 -1.83406,4.41071 l -0.002,0.01 c -0.28511,1.18679 -0.33494,2.25841 -0.22998,3.19467 -0.57199,-0.65959 -1.28744,-1.34969 -2.17158,-2.17122 l -0.009,-0.008 c -0.9637,-0.91069 -1.67955,-1.60002 -2.28656,-2.38136 -1.14822,-1.4763 -1.2763,-2.65769 -1.53762,-2.65813 -0.2111,-3.7e-4 -0.66173,1.22763 0.4255,2.99642 0.53127,0.86448 1.28364,1.68108 2.24464,2.58309 l 0.009,0.009 c 1.77289,1.6908 2.39812,2.11149 3.47039,3.36015 0.29564,0.34428 0.5098,0.63056 0.69021,0.87189 0.22067,0.35664 0.42618,0.56444 0.538,0.59182 0.0145,0.003 0.0277,0.005 0.0389,0.002 0.12577,-0.0174 0.17475,-0.35972 -0.004,-0.91747 -0.0406,-0.2705 -0.0848,-0.57485 -0.12106,-0.94585 -0.11715,-1.20017 -0.0802,-2.59524 0.33753,-4.38086 l 0.002,-0.01 c 0.38284,-1.61958 1.03223,-3.31755 1.39395,-4.36091 0.3907,-1.12697 0.57919,-1.84051 0.38744,-1.88254 z"
       id="path6769-9"
       inkscape:connector-curvature="0" />
    <path
       style="fill:#71c837;stroke:none;stroke-width:0.11503305px;stroke-linecap:butt;stroke-linejoin:miter;stroke-opacity:1"
       d="m 283.7387,269.07795 c -0.38121,0.0696 -2.8868,2.4515 -4.07374,6.00073 -0.32448,0.9703 -0.48903,1.86797 -0.53992,2.68046 -0.41897,-0.67996 -0.95042,-1.40812 -1.60022,-2.23857 l -0.002,-0.003 c -0.84024,-1.08955 -1.44902,-1.85896 -2.00778,-2.76431 -1.02981,-1.67114 -1.1831,-2.91723 -1.44413,-2.91752 -0.24521,-2.7e-4 -0.60437,1.29788 0.29369,3.1921 0.44845,0.94826 1.08594,1.86363 1.90217,2.91753 l 0.002,0.003 c 1.40292,1.83786 2.07989,2.60908 2.82512,3.93147 0.13037,0.23132 0.23884,0.44287 0.33422,0.63593 0.22273,0.6931 0.50078,1.07661 0.63287,1.05989 0.14379,-0.007 0.27468,-0.46106 0.14532,-1.2186 8e-4,-0.20438 0.003,-0.4265 0.011,-0.67199 0.0403,-1.20872 0.22132,-2.62361 0.82644,-4.40156 1.16173,-3.41343 3.073,-6.08841 2.72528,-6.20519 -0.008,-0.003 -0.0178,-0.003 -0.03,-3.7e-4 z"
       id="path6781-22"
       inkscape:connector-curvature="0" />
    <path
       style="fill:#71c837;stroke:none;stroke-width:0.08680147px;stroke-linecap:butt;stroke-linejoin:miter;stroke-opacity:1"
       d="m 258.20854,261.02122 c -0.009,-1.9e-4 -0.0176,10e-4 -0.0248,0.004 -0.12758,0.0505 0.0461,0.47554 0.24145,1.13943 0.2167,0.73638 0.38324,1.51443 0.4833,2.64813 0.15763,1.78629 0.12862,3.31873 0.32026,3.79295 -0.22524,-0.14047 -0.68874,-0.35772 -1.27646,-0.687 -0.90531,-0.50723 -1.95519,-1.20581 -2.99124,-2.2349 -0.21967,-0.21819 -0.42453,-0.43723 -0.61516,-0.655 -0.80733,-0.94359 -1.57859,-1.69602 -2.00678,-2.27376 -0.4239,-0.57194 -0.59279,-0.97398 -0.71744,-0.95658 -0.11175,0.0156 -0.15906,0.46092 0.14398,1.15602 0.35575,0.81599 0.91061,1.45559 1.77033,2.48787 0.19537,0.23937 0.4112,0.47855 0.64804,0.71421 1.1091,1.10361 2.3602,1.81621 3.41128,2.22428 1.02986,0.39983 1.73822,0.46575 1.78167,0.37706 0.26116,0.14776 1.83076,-1.33827 3.21558,-3.44697 1.37569,-2.09482 2.15003,-3.9004 1.95448,-3.9764 -0.28938,-0.11247 -1.47499,1.55664 -2.83186,3.62848 -0.83073,1.26848 -1.5959,2.38288 -2.01697,3.07171 0.0291,-0.12911 0.0574,-0.2709 0.084,-0.4291 0.11779,-0.70039 0.21665,-1.75218 0.10996,-2.84818 -0.11172,-1.14749 -0.42079,-2.06626 -0.81702,-2.76252 -0.35761,-0.62842 -0.72721,-0.97072 -0.86661,-0.97362 z m -4.71562,0.44644 c -0.0354,-1.5e-4 -0.0627,0.007 -0.0815,0.0215 -0.18367,0.14282 0.68405,1.09278 1.99794,2.08986 1.32079,1.00232 2.59065,1.63475 2.7744,1.46715 0.1683,-0.15351 -0.796,-1.03464 -2.08695,-2.01495 -1.1774,-0.89408 -2.26177,-1.56216 -2.60388,-1.56359 z m -3.85976,1.41333 c -0.15788,2.8e-4 -0.35701,0.65519 -0.0452,1.66614 0.19033,0.62889 0.55706,1.37797 1.20072,2.09032 0.21958,0.24301 0.45699,0.46551 0.70802,0.66697 0.84651,0.68555 1.81344,1.00397 2.54947,1.09831 0.734,0.0941 1.15448,-0.0287 1.15478,-0.10884 4.3e-4,-0.0991 -0.40673,-0.15334 -0.98465,-0.35121 -0.59828,-0.20485 -1.32181,-0.54995 -2.01697,-1.14854 -0.21033,-0.18281 -0.41252,-0.38094 -0.60612,-0.5958 -0.5643,-0.62626 -0.95498,-1.28315 -1.23802,-1.83704 -0.43681,-0.86485 -0.55622,-1.48063 -0.72205,-1.48031 z"
       id="path6691-9-8"
       inkscape:connector-curvature="0" />
    <path
       style="fill:#71c837;stroke:none;stroke-width:0.11503305px;stroke-linecap:butt;stroke-linejoin:miter;stroke-opacity:1"
       d="m 280.06098,281.57566 c -0.0133,-2.4e-4 -0.0253,10e-4 -0.0356,0.005 -0.183,0.0618 0.0661,0.58222 0.34634,1.39506 0.31084,0.90159 0.54974,1.85421 0.69325,3.24227 0.22614,2.18705 0.18451,4.0633 0.45941,4.64391 -0.32309,-0.17198 -0.98796,-0.43797 -1.83101,-0.84113 -1.29862,-0.62103 -2.80462,-1.47635 -4.29076,-2.73631 -0.3151,-0.26714 -0.60896,-0.53533 -0.88242,-0.80196 -1.15806,-1.15529 -2.26439,-2.07653 -2.87861,-2.7839 -0.60806,-0.70025 -0.85031,-1.19248 -1.02912,-1.17118 -0.1603,0.0191 -0.22816,0.56433 0.20654,1.41538 0.5103,0.99906 1.30621,1.78215 2.53943,3.04603 0.28025,0.29308 0.58985,0.58592 0.92957,0.87445 1.59094,1.35122 3.38558,2.2237 4.89329,2.72331 1.47728,0.48954 2.49338,0.57024 2.5557,0.46167 0.37462,0.1809 2.62613,-1.63853 4.61257,-4.22034 1.97335,-2.5648 3.0841,-4.77547 2.8036,-4.86852 -0.4151,-0.1377 -2.1158,1.90588 -4.06215,4.44255 -1.19164,1.55307 -2.28923,2.9175 -2.89323,3.76087 0.0417,-0.15808 0.0823,-0.33168 0.1205,-0.52537 0.16896,-0.85752 0.31079,-2.14529 0.15774,-3.4872 -0.16025,-1.40492 -0.60361,-2.52983 -1.17197,-3.38229 -0.51298,-0.76943 -1.04315,-1.18852 -1.2431,-1.19206 z m -6.76429,0.54661 c -0.0508,-1.9e-4 -0.09,0.008 -0.11692,0.0263 -0.26347,0.17487 0.98123,1.33796 2.86593,2.55875 1.89459,1.22718 3.71613,2.0015 3.9797,1.79631 0.24144,-0.18795 -1.1418,-1.26678 -2.9936,-2.46702 -1.68891,-1.09468 -3.24438,-1.91265 -3.73511,-1.91439 z m -5.53662,1.73041 c -0.22647,3.4e-4 -0.5121,0.80219 -0.0648,2.03996 0.27302,0.76998 0.79907,1.68712 1.72237,2.55929 0.31497,0.29753 0.65552,0.56996 1.0156,0.81661 1.21428,0.83935 2.60128,1.22922 3.65708,1.34472 1.05287,0.11518 1.65602,-0.0352 1.65646,-0.13326 5.3e-4,-0.12132 -0.58343,-0.18773 -1.41242,-0.43 -0.8582,-0.2508 -1.89606,-0.67334 -2.89323,-1.40623 -0.30171,-0.22382 -0.59175,-0.4664 -0.86946,-0.72947 -0.80944,-0.76677 -1.36985,-1.57103 -1.77586,-2.24919 -0.62657,-1.05888 -0.79786,-1.81282 -1.03574,-1.81243 z"
       id="path6691-97"
       inkscape:connector-curvature="0" />
    <path
       style="fill:#71c837;stroke:none;stroke-width:0.11503305px;stroke-linecap:butt;stroke-linejoin:miter;stroke-opacity:1"
       d="m 303.41182,281.29855 c -0.38968,0 -0.70594,2.03581 -0.70594,4.54433 0,2.00928 0.20322,3.71236 0.48423,4.31186 -0.13003,-0.0745 -0.3124,-0.15875 -0.55344,-0.24713 -0.56903,-0.20863 -1.4518,-0.40015 -2.3544,-0.65991 -0.4502,-0.13316 -0.93377,-0.28918 -1.29385,-0.49956 -0.29386,-0.16646 -0.54369,-0.38866 -0.6938,-0.64069 -0.016,-0.0268 -0.0306,-0.054 -0.0441,-0.0811 -0.45007,-0.89629 -1.37893,-2.45067 -1.64736,-2.90728 -0.42705,-0.7264 -0.70156,-1.19069 -0.8929,-1.16972 -0.18677,0.0205 -0.25385,0.53042 -0.0576,1.34015 0.21782,0.89891 0.64209,1.79611 1.25827,3.0323 0.0224,0.0446 0.047,0.0886 0.0734,0.13235 0.24851,0.41166 0.65498,0.75469 1.14328,1.00534 0.57647,0.28889 1.19498,0.4549 1.7312,0.56014 0.87464,0.17777 2.14844,0.30112 2.53639,0.34287 0.59042,0.0635 0.95523,0.10398 1.01672,0.0249 0.38967,0 0.70593,-2.03599 0.70593,-4.54452 0,-2.50852 -0.31626,-4.54434 -0.70593,-4.54434 z"
       id="path6721-36"
       inkscape:connector-curvature="0" />
    <path
       style="fill:#71c837;stroke:none;stroke-width:0.11503305px;stroke-linecap:butt;stroke-linejoin:miter;stroke-opacity:1"
       d="m 304.55327,267.11422 c -0.009,3.9e-4 -0.0175,0.002 -0.0254,0.005 -0.10249,0.0335 0.35663,1.14644 1.0702,2.91314 0.33776,0.84163 0.89045,2.23346 1.42152,3.39713 0.20623,0.4523 0.43652,0.93526 0.70704,1.41721 0.17154,0.31267 0.37604,0.66415 0.69352,1.00808 0.0774,0.0967 0.21919,0.22144 0.45252,0.35036 0.17677,0.12383 0.51114,0.16534 0.9646,0.0891 0.17522,-0.0735 0.308,-0.14673 0.40177,-0.21454 0.10851,-0.0784 0.16432,-0.14937 0.17345,-0.2052 0.12363,-0.19323 0.18752,-0.37213 0.22695,-0.52464 0.35601,-1.37676 2.0017,-2.74196 3.06833,-3.76506 0.77475,-0.72783 1.35017,-1.33525 1.77642,-1.98377 0.92388,-1.40421 0.56084,-2.29095 0.45335,-2.29257 -0.17291,-0.003 -0.25695,0.86383 -1.26517,2.0222 -0.50147,0.5765 -1.08286,1.07827 -1.92175,1.77728 -1.12789,0.921 -2.82287,2.25158 -3.43039,3.87911 -0.10089,-0.14932 -0.19533,-0.30811 -0.29314,-0.47026 -0.26622,-0.45052 -0.50767,-0.91755 -0.73351,-1.35882 -0.71661,-1.40119 -1.11324,-2.24065 -1.71823,-3.33123 -0.93833,-1.6965 -1.74355,-2.72433 -2.02212,-2.71214 z m 5.14449,8.32295 c 0.0116,0.005 0.0212,0.0121 0.0267,0.0207 -0.002,0.005 -0.009,-0.003 -0.0267,-0.0207 z"
       id="path6751-1"
       inkscape:connector-curvature="0" />
    <path
       inkscape:connector-curvature="0"
       style="fill:#71c837;stroke:none;stroke-width:0.08680147px;stroke-linecap:butt;stroke-linejoin:miter;stroke-opacity:1"
       d="m 310.88338,257.39304 c -0.12392,-0.0318 -0.48964,0.48949 -0.93563,1.37759 -0.43518,0.86657 -0.98566,2.1683 -1.27858,3.60246 l -0.002,0.008 c -0.19877,0.96932 -0.23349,1.84456 -0.16032,2.60927 -0.39876,-0.53873 -0.89753,-1.10237 -1.51389,-1.77336 l -0.006,-0.007 c -0.67183,-0.74381 -1.17088,-1.30683 -1.59404,-1.94499 -0.80046,-1.20577 -0.88975,-2.17069 -1.07193,-2.17104 -0.14716,-3e-4 -0.46132,1.00268 0.29663,2.44734 0.37037,0.70607 0.89487,1.37304 1.56481,2.10975 l 0.006,0.007 c 1.23595,1.38096 1.67182,1.72457 2.41934,2.74442 0.2061,0.28119 0.3554,0.51502 0.48117,0.71212 0.15383,0.29129 0.2971,0.46101 0.37505,0.48338 0.0101,0.003 0.0193,0.004 0.0271,0.002 0.0877,-0.0142 0.12183,-0.2938 -0.002,-0.74935 -0.0283,-0.22093 -0.0591,-0.46951 -0.0844,-0.77253 -0.0817,-0.98024 -0.0559,-2.11968 0.2353,-3.57809 l 0.002,-0.008 c 0.2669,-1.3228 0.7196,-2.70964 0.97177,-3.56181 0.27237,-0.92046 0.40377,-1.50323 0.2701,-1.53756 z"
       id="path6769-6-2" />
    <path
       style="fill:#71c837;stroke:none;stroke-width:0.11503305px;stroke-linecap:butt;stroke-linejoin:miter;stroke-opacity:1"
       d="m 294.06786,271.54285 c -0.38967,0 -0.70593,1.82392 -0.70593,4.07114 0,2.24722 0.31626,4.07095 0.70593,4.07095 -0.0627,0.0456 0.0702,0.17588 0.13209,0.33792 -0.0194,-0.003 -0.0448,-0.005 -0.0838,0.001 -0.13642,-0.005 -0.27448,-0.0267 -0.46437,-0.0536 -0.39218,-0.0588 -0.78873,-0.14127 -1.27179,-0.25719 -0.32771,-0.0831 -0.66529,-0.15605 -0.87332,-0.25866 -0.51565,-0.22079 -0.96067,-0.53809 -1.33438,-0.94603 -0.35277,-0.38509 -0.60639,-0.81238 -0.78287,-1.21438 -0.67633,-1.5857 -0.71704,-2.9131 -1.02608,-2.91112 -0.13966,10e-4 -0.82399,1.2609 -0.273,3.11541 0.14232,0.49166 0.4213,1.01578 0.88352,1.50324 0.48669,0.51327 1.11606,0.92153 1.83901,1.2045 0.4497,0.1645 0.88567,0.23562 1.22464,0.28227 0.54328,0.0841 1.04183,0.12806 1.50866,0.13143 0.22109,0.003 0.44104,-0.006 0.66043,-0.0369 0.15325,-0.002 0.37077,-0.07 0.56199,-0.19825 0.17733,-0.21774 0.11617,-0.3727 0.006,-0.45251 -0.12484,-0.11021 -0.24934,-0.17577 -0.35848,-0.21381 0.49945,0.0392 1.50954,0.0765 2.82594,-0.11459 0.47944,-0.0663 1.04692,-0.19435 1.57595,-0.458 0.50234,-0.26473 0.87945,-0.64269 1.04677,-1.08351 0.14371,-0.37133 0.25029,-0.7536 0.33008,-1.15014 0.14452,-0.71833 0.19265,-1.455 0.22943,-2.05423 0.1237,-1.79999 0.3636,-3.08686 0.20405,-3.12566 -0.36226,-0.0881 -1.16423,1.15505 -1.49873,3.05573 -0.11476,0.62583 -0.19624,1.30871 -0.33311,2.00134 -0.0737,0.37294 -0.15986,0.72205 -0.27217,1.05952 -0.0853,0.25835 -0.27202,0.48878 -0.52615,0.63996 -0.27354,0.1773 -0.68477,0.29892 -1.06772,0.3976 -1.23023,0.30632 -2.29521,0.52671 -2.69524,0.67803 0.30869,-0.43492 0.53828,-2.03698 0.53828,-3.9505 0,-2.24723 -0.31626,-4.07114 -0.70594,-4.07114 z m 0.15029,8.54079 c 0.002,0.01 0.006,0.0193 0.007,0.0293 -0.0253,0.0306 -0.0208,0.0247 -0.007,-0.0293 z"
       id="path6661-1-9"
       inkscape:connector-curvature="0" />
  </g>
</svg>
